<svg data-v-fde0c5aa="" xmlns="http://www.w3.org/2000/svg" viewBox="0 0 300 300" class="iconLeft"><!----><defs data-v-fde0c5aa=""><!----></defs><rect data-v-fde0c5aa="" fill="transparent" x="0" y="0" width="300px" height="300px" class="logo-background-square"></rect><defs data-v-fde0c5aa=""><!----></defs><g data-v-fde0c5aa="" id="35b128a6-95ae-4669-9d7e-0c11fdad2b2c" fill="#000000" transform="matrix(2.263903379746354,0,0,2.263903379746354,85.860555433076,129.04757504087758)"><path d="M2.63 14.01L2.63 14.01Q2.55 14.01 2.48 13.96L2.48 13.96L2.48 13.96Q2.41 13.90 2.41 13.82L2.41 13.82L2.41 13.82Q2.41 13.73 2.48 13.68L2.48 13.68L2.48 13.68Q2.55 13.62 2.63 13.62L2.63 13.62L3.25 13.62L3.25 13.62Q3.40 13.62 3.51 13.50L3.51 13.50L3.51 13.50Q3.63 13.38 3.63 13.24L3.63 13.24L3.63 4.82L3.63 4.82Q2.91 4.82 2.45 4.91L2.45 4.91L2.45 4.91Q1.99 5.00 1.59 5.33L1.59 5.33L1.59 5.33Q1.19 5.66 0.90 6.33L0.90 6.33L0.64 6.82L0.64 6.82Q0.63 6.85 0.60 6.91L0.60 6.91L0.60 6.91Q0.57 6.97 0.50 6.97L0.50 6.97L0.50 6.97Q0.43 6.97 0.38 6.93L0.38 6.93L0.38 6.93Q0.32 6.89 0.32 6.82L0.32 6.82L0.46 4.66L0.46 4.66Q0.46 4.55 0.54 4.48L0.54 4.48L0.54 4.48Q0.62 4.41 0.71 4.41L0.71 4.41L7.90 4.41L7.90 4.41Q8.01 4.41 8.09 4.49L8.09 4.49L8.09 4.49Q8.16 4.56 8.18 4.66L8.18 4.66L8.26 6.82L8.26 6.82Q8.26 6.89 8.22 6.93L8.22 6.93L8.22 6.93Q8.19 6.97 8.13 6.97L8.13 6.97L8.13 6.97Q8.06 6.97 7.98 6.82L7.98 6.82L7.73 6.33L7.73 6.33Q7.45 5.67 7.04 5.34L7.04 5.34L7.04 5.34Q6.64 5.01 6.17 4.91L6.17 4.91L6.17 4.91Q5.70 4.82 5.03 4.82L5.03 4.82L5.03 13.24L5.03 13.24Q5.03 13.40 5.13 13.51L5.13 13.51L5.13 13.51Q5.24 13.62 5.38 13.62L5.38 13.62L6.01 13.62L6.01 13.62Q6.08 13.62 6.14 13.68L6.14 13.68L6.14 13.68Q6.20 13.73 6.20 13.82L6.20 13.82L6.20 13.82Q6.20 13.90 6.14 13.96L6.14 13.96L6.14 13.96Q6.08 14.01 6.01 14.01L6.01 14.01L2.63 14.01ZM9.28 14.01L9.28 14.01Q9.18 14.01 9.13 13.96L9.13 13.96L9.13 13.96Q9.07 13.90 9.07 13.82L9.07 13.82L9.07 13.82Q9.07 13.73 9.13 13.68L9.13 13.68L9.13 13.68Q9.18 13.62 9.28 13.62L9.28 13.62L9.28 13.62Q9.76 13.62 10.11 13.28L10.11 13.28L10.11 13.28Q10.46 12.94 10.46 12.45L10.46 12.45L10.46 5.29L10.46 5.29Q10.46 5.10 10.33 4.96L10.33 4.96L10.33 4.96Q10.21 4.82 10.01 4.82L10.01 4.82L9.28 4.82L9.28 4.82Q9.20 4.82 9.13 4.75L9.13 4.75L9.13 4.75Q9.07 4.69 9.07 4.61L9.07 4.61L9.07 4.61Q9.07 4.52 9.13 4.47L9.13 4.47L9.13 4.47Q9.18 4.41 9.28 4.41L9.28 4.41L11.89 4.41L11.89 4.41Q12.01 4.41 12.05 4.52L12.05 4.52L14.67 11.89L17.21 4.52L17.21 4.52Q17.25 4.41 17.37 4.41L17.37 4.41L19.75 4.41L19.75 4.41Q19.84 4.41 19.89 4.47L19.89 4.47L19.89 4.47Q19.94 4.52 19.94 4.61L19.94 4.61L19.94 4.61Q19.94 4.69 19.89 4.75L19.89 4.75L19.89 4.75Q19.84 4.82 19.75 4.82L19.75 4.82L19.12 4.82L19.12 4.82Q18.97 4.82 18.84 4.93L18.84 4.93L18.84 4.93Q18.72 5.04 18.72 5.19L18.72 5.19L18.72 13.24L18.72 13.24Q18.72 13.38 18.84 13.50L18.84 13.50L18.84 13.50Q18.97 13.62 19.12 13.62L19.12 13.62L19.75 13.62L19.75 13.62Q19.84 13.62 19.89 13.68L19.89 13.68L19.89 13.68Q19.94 13.73 19.94 13.82L19.94 13.82L19.94 13.82Q19.94 13.90 19.89 13.96L19.89 13.96L19.89 13.96Q19.84 14.01 19.75 14.01L19.75 14.01L16.34 14.01L16.34 14.01Q16.27 14.01 16.22 13.96L16.22 13.96L16.22 13.96Q16.17 13.90 16.17 13.82L16.17 13.82L16.17 13.82Q16.17 13.73 16.22 13.68L16.22 13.68L16.22 13.68Q16.27 13.62 16.34 13.62L16.34 13.62L16.97 13.62L16.97 13.62Q17.11 13.62 17.22 13.51L17.22 13.51L17.22 13.51Q17.33 13.40 17.33 13.24L17.33 13.24L17.33 5.33L14.38 13.90L14.38 13.90Q14.34 14.01 14.21 14.01L14.21 14.01L14.15 14.01L14.15 14.01Q14.03 14.01 13.99 13.90L13.99 13.90L10.84 5.11L10.84 12.45L10.84 12.45Q10.84 12.94 11.18 13.28L11.18 13.28L11.18 13.28Q11.52 13.62 12.01 13.62L12.01 13.62L12.01 13.62Q12.10 13.62 12.17 13.68L12.17 13.68L12.17 13.68Q12.24 13.73 12.24 13.82L12.24 13.82L12.24 13.82Q12.24 13.90 12.17 13.96L12.17 13.96L12.17 13.96Q12.10 14.01 12.01 14.01L12.01 14.01L9.28 14.01ZM24.37 14.20L24.37 14.20Q23.87 14.20 23.50 14.08L23.50 14.08L23.50 14.08Q23.13 13.96 22.65 13.73L22.65 13.73L22.65 13.73Q22.47 13.64 22.31 13.57L22.31 13.57L22.31 13.57Q22.15 13.51 22.02 13.51L22.02 13.51L22.02 13.51Q21.87 13.51 21.72 13.60L21.72 13.60L21.72 13.60Q21.57 13.69 21.45 13.79L21.45 13.79L21.45 13.79Q21.34 13.89 21.29 13.92L21.29 13.92L21.29 13.92Q21.25 13.94 21.17 13.94L21.17 13.94L21.17 13.94Q21.07 13.94 21 13.87L21 13.87L21 13.87Q20.93 13.80 20.93 13.71L20.93 13.71L20.93 11.35L20.93 11.35Q20.93 11.20 21.07 11.20L21.07 11.20L21.07 11.20Q21.20 11.20 21.27 11.35L21.27 11.35L21.27 11.35Q21.80 12.53 22.53 13.19L22.53 13.19L22.53 13.19Q23.27 13.85 24.37 13.85L24.37 13.85L24.37 13.85Q25.45 13.85 25.92 13.29L25.92 13.29L25.92 13.29Q26.39 12.74 26.50 12.15L26.50 12.15L26.50 12.15Q26.53 12.04 26.53 11.86L26.53 11.86L26.53 11.86Q26.53 10.99 25.75 10.52L25.75 10.52L25.75 10.52Q24.98 10.05 23.74 9.72L23.74 9.72L23.74 9.72Q23.09 9.52 22.52 9.25L22.52 9.25L22.52 9.25Q21.95 8.99 21.44 8.41L21.44 8.41L21.44 8.41Q20.93 7.83 20.93 6.93L20.93 6.93L20.93 6.93Q20.93 6.10 21.29 5.51L21.29 5.51L21.29 5.51Q21.66 4.91 22.27 4.61L22.27 4.61L22.27 4.61Q22.89 4.31 23.65 4.31L23.65 4.31L23.65 4.31Q24.44 4.31 25.35 4.80L25.35 4.80L25.35 4.80Q25.47 4.84 25.65 4.84L25.65 4.84L25.65 4.84Q25.96 4.84 26.14 4.66L26.14 4.66L26.14 4.66Q26.22 4.59 26.29 4.56L26.29 4.56L26.29 4.56Q26.35 4.52 26.42 4.52L26.42 4.52L26.42 4.52Q26.60 4.52 26.60 4.72L26.60 4.72L26.64 6.78L26.64 6.78Q26.64 7.00 26.50 7.00L26.50 7.00L26.50 7.00Q26.45 7.00 26.40 6.94L26.40 6.94L26.40 6.94Q26.35 6.87 26.28 6.75L26.28 6.75L26.28 6.75Q25.61 5.54 25.06 5.11L25.06 5.11L25.06 5.11Q24.46 4.62 23.70 4.62L23.70 4.62L23.70 4.62Q22.85 4.62 22.32 5.09L22.32 5.09L22.32 5.09Q21.78 5.56 21.78 6.29L21.78 6.29L21.78 6.29Q21.78 6.85 22.09 7.20L22.09 7.20L22.09 7.20Q22.40 7.55 22.90 7.75L22.90 7.75L22.90 7.75Q23.39 7.95 24.18 8.15L24.18 8.15L24.18 8.15Q24.99 8.37 25.61 8.65L25.61 8.65L25.61 8.65Q26.24 8.92 26.73 9.53L26.73 9.53L26.73 9.53Q27.23 10.15 27.23 11.17L27.23 11.17L27.23 11.17Q27.23 11.98 26.88 12.68L26.88 12.68L26.88 12.68Q26.53 13.37 25.88 13.78L25.88 13.78L25.88 13.78Q25.23 14.20 24.37 14.20L24.37 14.20ZM35.13 14.20L35.13 14.20Q34.62 14.20 34.25 14.08L34.25 14.08L34.25 14.08Q33.88 13.96 33.40 13.73L33.40 13.73L33.40 13.73Q33.22 13.64 33.06 13.57L33.06 13.57L33.06 13.57Q32.90 13.51 32.77 13.51L32.77 13.51L32.77 13.51Q32.62 13.51 32.47 13.60L32.47 13.60L32.47 13.60Q32.33 13.69 32.21 13.79L32.21 13.79L32.21 13.79Q32.09 13.89 32.05 13.92L32.05 13.92L32.05 13.92Q32.00 13.94 31.92 13.94L31.92 13.94L31.92 13.94Q31.82 13.94 31.75 13.87L31.75 13.87L31.75 13.87Q31.68 13.80 31.68 13.71L31.68 13.71L31.68 11.35L31.68 11.35Q31.68 11.20 31.82 11.20L31.82 11.20L31.82 11.20Q31.95 11.20 32.02 11.35L32.02 11.35L32.02 11.35Q32.55 12.53 33.28 13.19L33.28 13.19L33.28 13.19Q34.02 13.85 35.13 13.85L35.13 13.85L35.13 13.85Q36.20 13.85 36.67 13.29L36.67 13.29L36.67 13.29Q37.14 12.74 37.25 12.15L37.25 12.15L37.25 12.15Q37.28 12.04 37.28 11.86L37.28 11.86L37.28 11.86Q37.28 10.99 36.50 10.52L36.50 10.52L36.50 10.52Q35.73 10.05 34.50 9.72L34.50 9.72L34.50 9.72Q33.84 9.52 33.27 9.25L33.27 9.25L33.27 9.25Q32.70 8.99 32.19 8.41L32.19 8.41L32.19 8.41Q31.68 7.83 31.68 6.93L31.68 6.93L31.68 6.93Q31.68 6.10 32.05 5.51L32.05 5.51L32.05 5.51Q32.41 4.91 33.03 4.61L33.03 4.61L33.03 4.61Q33.64 4.31 34.40 4.31L34.40 4.31L34.40 4.31Q35.20 4.31 36.11 4.80L36.11 4.80L36.11 4.80Q36.22 4.84 36.40 4.84L36.40 4.84L36.40 4.84Q36.71 4.84 36.89 4.66L36.89 4.66L36.89 4.66Q36.97 4.59 37.04 4.56L37.04 4.56L37.04 4.56Q37.10 4.52 37.17 4.52L37.17 4.52L37.17 4.52Q37.35 4.52 37.35 4.72L37.35 4.72L37.39 6.78L37.39 6.78Q37.39 7.00 37.25 7.00L37.25 7.00L37.25 7.00Q37.20 7.00 37.15 6.94L37.15 6.94L37.15 6.94Q37.10 6.87 37.03 6.75L37.03 6.75L37.03 6.75Q36.36 5.54 35.81 5.11L35.81 5.11L35.81 5.11Q35.21 4.62 34.45 4.62L34.45 4.62L34.45 4.62Q33.60 4.62 33.07 5.09L33.07 5.09L33.07 5.09Q32.54 5.56 32.54 6.29L32.54 6.29L32.54 6.29Q32.54 6.85 32.84 7.20L32.84 7.20L32.84 7.20Q33.15 7.55 33.65 7.75L33.65 7.75L33.65 7.75Q34.15 7.95 34.93 8.15L34.93 8.15L34.93 8.15Q35.74 8.37 36.36 8.65L36.36 8.65L36.36 8.65Q36.99 8.92 37.48 9.53L37.48 9.53L37.48 9.53Q37.98 10.15 37.98 11.17L37.98 11.17L37.98 11.17Q37.98 11.98 37.63 12.68L37.63 12.68L37.63 12.68Q37.28 13.37 36.63 13.78L36.63 13.78L36.63 13.78Q35.98 14.20 35.13 14.20L35.13 14.20ZM41.72 14.14L41.72 14.14Q40.98 14.14 40.34 13.74L40.34 13.74L40.34 13.74Q39.70 13.34 39.33 12.67L39.33 12.67L39.33 12.67Q38.96 12.00 38.96 11.21L38.96 11.21L38.96 11.21Q38.96 10.42 39.33 9.72L39.33 9.72L39.33 9.72Q39.70 9.03 40.34 8.62L40.34 8.62L40.34 8.62Q40.98 8.22 41.72 8.22L41.72 8.22L41.72 8.22Q42.46 8.22 43.10 8.62L43.10 8.62L43.10 8.62Q43.74 9.03 44.11 9.72L44.11 9.72L44.11 9.72Q44.48 10.42 44.48 11.21L44.48 11.21L44.48 11.21Q44.48 12.00 44.11 12.67L44.11 12.67L44.11 12.67Q43.74 13.34 43.10 13.74L43.10 13.74L43.10 13.74Q42.46 14.14 41.72 14.14L41.72 14.14ZM41.72 13.89L41.72 13.89Q42.42 13.89 42.83 13.15L42.83 13.15L42.83 13.15Q43.23 12.42 43.23 11.21L43.23 11.21L43.23 11.21Q43.23 10.00 42.83 9.24L42.83 9.24L42.83 9.24Q42.42 8.48 41.72 8.48L41.72 8.48L41.72 8.48Q41.03 8.48 40.63 9.24L40.63 9.24L40.63 9.24Q40.22 10.00 40.22 11.21L40.22 11.21L40.22 11.21Q40.22 12.42 40.63 13.15L40.63 13.15L40.63 13.15Q41.03 13.89 41.72 13.89L41.72 13.89ZM45.72 14.01L45.72 14.01Q45.63 14.01 45.63 13.85L45.63 13.85L45.63 13.85Q45.63 13.78 45.65 13.76L45.65 13.76L45.65 13.76Q45.68 13.73 45.77 13.73L45.77 13.73L46.17 13.73L46.17 13.73Q46.30 13.73 46.35 13.64L46.35 13.64L46.35 13.64Q46.41 13.55 46.41 13.41L46.41 13.41L46.41 5.07L46.41 5.07Q46.41 4.90 46.34 4.81L46.34 4.81L46.34 4.81Q46.27 4.72 46.17 4.72L46.17 4.72L45.63 4.72L45.63 4.72Q45.46 4.72 45.46 4.56L45.46 4.56L45.46 4.56Q45.46 4.48 45.50 4.45L45.50 4.45L45.50 4.45Q45.54 4.41 45.64 4.41L45.64 4.41L47.22 4.41L47.22 4.41Q47.43 4.41 47.43 4.62L47.43 4.62L47.43 13.51L47.43 13.51Q47.43 13.64 47.47 13.67L47.47 13.67L47.47 13.67Q47.52 13.71 47.61 13.71L47.61 13.71L48.08 13.71L48.08 13.71Q48.22 13.71 48.22 13.85L48.22 13.85L48.22 13.85Q48.22 14.01 48.08 14.01L48.08 14.01L45.72 14.01ZM51.51 14.14L51.51 14.14Q50.72 14.14 50.37 13.62L50.37 13.62L50.37 13.62Q50.01 13.10 50.01 12.52L50.01 12.52L50.01 8.88L50.01 8.88Q50.01 8.65 49.81 8.65L49.81 8.65L49.34 8.65L49.34 8.65Q49.20 8.65 49.20 8.51L49.20 8.51L49.20 8.51Q49.20 8.37 49.36 8.37L49.36 8.37L50.86 8.37L50.86 8.37Q50.96 8.37 50.99 8.41L50.99 8.41L50.99 8.41Q51.03 8.44 51.03 8.54L51.03 8.54L51.03 12.49L51.03 12.49Q51.03 12.95 51.30 13.24L51.30 13.24L51.30 13.24Q51.56 13.52 51.95 13.52L51.95 13.52L51.95 13.52Q52.51 13.52 52.93 13.08L52.93 13.08L52.93 13.08Q53.35 12.64 53.35 11.52L53.35 11.52L53.35 8.86L53.35 8.86Q53.35 8.74 53.31 8.69L53.31 8.69L53.31 8.69Q53.27 8.65 53.17 8.65L53.17 8.65L52.71 8.65L52.71 8.65Q52.57 8.65 52.57 8.51L52.57 8.51L52.57 8.51Q52.57 8.36 52.71 8.36L52.71 8.36L54.17 8.36L54.17 8.36Q54.29 8.36 54.34 8.40L54.34 8.40L54.34 8.40Q54.39 8.44 54.39 8.54L54.39 8.54L54.39 13.37L54.39 13.37Q54.39 13.54 54.45 13.62L54.45 13.62L54.45 13.62Q54.52 13.71 54.61 13.71L54.61 13.71L55.15 13.71L55.15 13.71Q55.33 13.71 55.33 13.83L55.33 13.83L55.33 13.83Q55.33 13.90 55.27 13.96L55.27 13.96L55.27 13.96Q55.20 14.01 55.12 14.01L55.12 14.01L53.56 14.01L53.56 14.01Q53.45 14.01 53.40 13.97L53.40 13.97L53.40 13.97Q53.35 13.92 53.35 13.79L53.35 13.79L53.35 13.01L53.35 13.01Q53.35 12.95 53.32 12.95L53.32 12.95L53.32 12.95Q53.28 12.95 53.26 13.01L53.26 13.01L53.26 13.01Q53.02 13.41 52.63 13.78L52.63 13.78L52.63 13.78Q52.23 14.14 51.51 14.14L51.51 14.14ZM58.14 14.14L58.14 14.14Q57.71 14.14 57.30 13.93L57.30 13.93L57.30 13.93Q56.88 13.72 56.88 13.10L56.88 13.10L56.88 8.72L56.11 8.72L56.11 8.72Q56.06 8.72 56.02 8.68L56.02 8.68L56.02 8.68Q55.99 8.64 55.99 8.58L55.99 8.58L55.99 8.58Q55.99 8.47 56.10 8.47L56.10 8.47L56.10 8.47Q56.67 8.33 57.05 7.85L57.05 7.85L57.05 7.85Q57.43 7.36 57.43 6.38L57.43 6.38L57.43 6.38Q57.43 6.31 57.48 6.26L57.48 6.26L57.48 6.26Q57.53 6.20 57.60 6.20L57.60 6.20L57.72 6.20L57.72 6.20Q57.79 6.20 57.83 6.26L57.83 6.26L57.83 6.26Q57.88 6.31 57.88 6.38L57.88 6.38L57.88 8.36L59.49 8.36L59.49 8.36Q59.58 8.36 59.58 8.50L59.58 8.50L59.58 8.58L59.58 8.58Q59.58 8.72 59.49 8.72L59.49 8.72L57.88 8.72L57.88 12.74L57.88 12.74Q57.88 13.26 58.09 13.43L58.09 13.43L58.09 13.43Q58.31 13.59 58.63 13.59L58.63 13.59L58.63 13.59Q59.15 13.59 59.57 12.94L59.57 12.94L59.57 12.94Q59.64 12.81 59.68 12.81L59.68 12.81L59.68 12.81Q59.86 12.81 59.86 12.96L59.86 12.96L59.86 12.96Q59.86 13.03 59.82 13.10L59.82 13.10L59.82 13.10Q59.49 13.73 59.05 13.94L59.05 13.94L59.05 13.94Q58.62 14.14 58.14 14.14L58.14 14.14ZM61.99 6.41L61.99 6.41Q61.73 6.41 61.54 6.22L61.54 6.22L61.54 6.22Q61.35 6.02 61.35 5.75L61.35 5.75L61.35 5.75Q61.35 5.49 61.54 5.29L61.54 5.29L61.54 5.29Q61.73 5.08 61.99 5.08L61.99 5.08L61.99 5.08Q62.26 5.08 62.47 5.29L62.47 5.29L62.47 5.29Q62.68 5.50 62.68 5.75L62.68 5.75L62.68 5.75Q62.68 6.02 62.48 6.22L62.48 6.22L62.48 6.22Q62.27 6.41 61.99 6.41L61.99 6.41ZM60.82 14.01L60.82 14.01Q60.76 14.01 60.74 13.97L60.74 13.97L60.74 13.97Q60.72 13.93 60.72 13.85L60.72 13.85L60.72 13.85Q60.72 13.78 60.75 13.76L60.75 13.76L60.75 13.76Q60.77 13.73 60.86 13.73L60.86 13.73L61.25 13.73L61.25 13.73Q61.38 13.73 61.44 13.64L61.44 13.64L61.44 13.64Q61.50 13.54 61.50 13.41L61.50 13.41L61.50 9.00L61.50 9.00Q61.50 8.69 61.25 8.69L61.25 8.69L60.72 8.69L60.72 8.69Q60.55 8.69 60.55 8.54L60.55 8.54L60.55 8.54Q60.55 8.36 60.73 8.36L60.73 8.36L62.31 8.36L62.31 8.36Q62.52 8.36 62.52 8.58L62.52 8.58L62.52 13.51L62.52 13.51Q62.52 13.64 62.57 13.67L62.57 13.67L62.57 13.67Q62.61 13.71 62.71 13.71L62.71 13.71L63.17 13.71L63.17 13.71Q63.31 13.71 63.31 13.85L63.31 13.85L63.31 13.85Q63.31 14.01 63.17 14.01L63.17 14.01L60.82 14.01ZM67.05 14.14L67.05 14.14Q66.30 14.14 65.67 13.74L65.67 13.74L65.67 13.74Q65.03 13.34 64.66 12.67L64.66 12.67L64.66 12.67Q64.29 12.00 64.29 11.21L64.29 11.21L64.29 11.21Q64.29 10.42 64.66 9.72L64.66 9.72L64.66 9.72Q65.03 9.03 65.67 8.62L65.67 8.62L65.67 8.62Q66.30 8.22 67.05 8.22L67.05 8.22L67.05 8.22Q67.79 8.22 68.42 8.62L68.42 8.62L68.42 8.62Q69.06 9.03 69.43 9.72L69.43 9.72L69.43 9.72Q69.80 10.42 69.80 11.21L69.80 11.21L69.80 11.21Q69.80 12.00 69.43 12.67L69.43 12.67L69.43 12.67Q69.06 13.34 68.42 13.74L68.42 13.74L68.42 13.74Q67.79 14.14 67.05 14.14L67.05 14.14ZM67.05 13.89L67.05 13.89Q67.75 13.89 68.15 13.15L68.15 13.15L68.15 13.15Q68.56 12.42 68.56 11.21L68.56 11.21L68.56 11.21Q68.56 10.00 68.15 9.24L68.15 9.24L68.15 9.24Q67.75 8.48 67.05 8.48L67.05 8.48L67.05 8.48Q66.36 8.48 65.95 9.24L65.95 9.24L65.95 9.24Q65.55 10.00 65.55 11.21L65.55 11.21L65.55 11.21Q65.55 12.42 65.95 13.15L65.95 13.15L65.95 13.15Q66.36 13.89 67.05 13.89L67.05 13.89ZM71.05 14.01L71.05 14.01Q70.99 14.01 70.97 13.97L70.97 13.97L70.97 13.97Q70.95 13.93 70.95 13.85L70.95 13.85L70.95 13.85Q70.95 13.78 70.98 13.76L70.98 13.76L70.98 13.76Q71.01 13.73 71.09 13.73L71.09 13.73L71.48 13.73L71.48 13.73Q71.61 13.73 71.67 13.64L71.67 13.64L71.67 13.64Q71.74 13.54 71.74 13.41L71.74 13.41L71.74 9.00L71.74 9.00Q71.74 8.69 71.48 8.69L71.48 8.69L70.95 8.69L70.95 8.69Q70.78 8.69 70.78 8.54L70.78 8.54L70.78 8.54Q70.78 8.36 70.97 8.36L70.97 8.36L72.55 8.36L72.55 8.36Q72.76 8.36 72.76 8.58L72.76 8.58L72.76 9.42L72.76 9.42Q72.79 9.49 72.86 9.39L72.86 9.39L72.86 9.39Q72.87 9.37 73.05 9.07L73.05 9.07L73.05 9.07Q73.22 8.78 73.65 8.51L73.65 8.51L73.65 8.51Q74.07 8.23 74.61 8.23L74.61 8.23L74.61 8.23Q75.38 8.23 75.74 8.75L75.74 8.75L75.74 8.75Q76.10 9.27 76.10 9.86L76.10 9.86L76.10 13.48L76.10 13.48Q76.10 13.71 76.29 13.71L76.29 13.71L76.75 13.71L76.75 13.71Q76.83 13.71 76.87 13.73L76.87 13.73L76.87 13.73Q76.92 13.76 76.92 13.85L76.92 13.85L76.92 13.85Q76.92 13.93 76.87 13.97L76.87 13.97L76.87 13.97Q76.83 14.00 76.75 14.00L76.75 14.00L74.56 14.00L74.56 14.00Q74.47 14.00 74.47 13.85L74.47 13.85L74.47 13.85Q74.47 13.78 74.49 13.74L74.49 13.74L74.49 13.74Q74.52 13.71 74.61 13.71L74.61 13.71L74.84 13.71L74.84 13.71Q74.98 13.71 75.03 13.66L75.03 13.66L75.03 13.66Q75.08 13.62 75.08 13.48L75.08 13.48L75.08 9.90L75.08 9.90Q75.08 9.44 74.82 9.14L74.82 9.14L74.82 9.14Q74.55 8.83 74.16 8.83L74.16 8.83L74.16 8.83Q73.71 8.83 73.30 9.18L73.30 9.18L73.30 9.18Q72.88 9.52 72.76 10.35L72.76 10.35L72.76 13.51L72.76 13.51Q72.76 13.64 72.80 13.67L72.80 13.67L72.80 13.67Q72.84 13.71 72.94 13.71L72.94 13.71L73.25 13.71L73.25 13.71Q73.32 13.71 73.34 13.73L73.34 13.73L73.34 13.73Q73.36 13.76 73.36 13.85L73.36 13.85L73.36 13.85Q73.36 13.94 73.34 13.98L73.34 13.98L73.34 13.98Q73.32 14.01 73.25 14.01L73.25 14.01L71.05 14.01Z"></path></g><defs data-v-fde0c5aa=""><linearGradient data-v-fde0c5aa="" gradientTransform="rotate(25)" id="fe10ed5c-b00f-4c77-a6ca-daacc687e82f" x1="0%" y1="0%" x2="100%" y2="0%"><stop data-v-fde0c5aa="" offset="0%" stop-color="#000A68" stop-opacity="1"></stop><stop data-v-fde0c5aa="" offset="100%" stop-color="#00C4EE" stop-opacity="1"></stop></linearGradient></defs><g data-v-fde0c5aa="" id="e18b5488-daa0-4bba-aad9-52f28afcf561" stroke="none" fill="url(#fe10ed5c-b00f-4c77-a6ca-daacc687e82f)" transform="matrix(0.3731667173985746,0,0,0.3731667173985746,38.13416641300713,131.34166413007128)"><path d="M95 5L43.469 9.313l13.437 13.5C51.221 36.59 5 95 5 95s55.641-37.762 72.875-51.188l12.719 12.75L95 5zM5.125 36v54.156C16.778 75.066 32.603 54.27 45.656 36H5.125zm58.781 23.219c-17.53 12.358-36.55 25.475-51.25 35.562h51.25V59.22z" style="marker:none" opacity=".99" color="#000" overflow="visible"></path></g><!----></svg>