<svg data-v-fde0c5aa="" xmlns="http://www.w3.org/2000/svg" viewBox="0 0 300 300" class="iconAboveSlogan"><!----><defs data-v-fde0c5aa=""><!----></defs><rect data-v-fde0c5aa="" fill="transparent" x="0" y="0" width="300px" height="300px" class="logo-background-square"></rect><defs data-v-fde0c5aa=""><!----></defs><g data-v-fde0c5aa="" id="f2869399-73b8-4100-a7d5-c8e5527597d9" fill="#000000" transform="matrix(1.6065249992787338,0,0,1.6065249992787338,19.775086499143413,149.31479677321812)"><path d="M8.19 6.80L8.09 4.79L7.83 4.54C7.83 4.54 6.51 4.68 6.23 4.68L2.10 4.68C1.82 4.68 0.50 4.54 0.50 4.54L0.24 4.79L0.14 6.80L0.95 6.87C0.98 6.65 1.05 6.22 1.11 6.01C1.12 5.91 1.25 5.71 1.39 5.53C1.69 5.50 2.13 5.46 2.52 5.46L3.40 5.46C3.43 5.73 3.53 6.38 3.53 6.59L3.53 12.63C3.53 12.87 3.43 13.51 3.40 13.69L2.30 13.92L2.37 14.62C2.37 14.62 3.74 14.55 4.02 14.55C5.14 14.55 6.06 14.62 6.06 14.62L6.16 13.79L4.90 13.69C4.87 13.50 4.80 12.80 4.80 12.21L4.80 7.01C4.80 6.48 4.87 5.74 4.90 5.46L5.81 5.46C6.20 5.46 6.64 5.50 6.94 5.53C7.08 5.71 7.21 5.91 7.22 6.01C7.28 6.22 7.35 6.65 7.38 6.87ZM12.57 14.55C13.69 14.55 14.38 14.62 14.38 14.62L14.48 13.79L13.51 13.69C13.51 13.69 13.37 12.91 13.37 12.21L13.37 10.47C13.37 8.33 12.73 7.50 11.06 7.50C10.22 7.50 9.37 7.62 8.53 7.84L8.68 9.74L9.49 9.70L9.49 9.13L9.59 8.54C9.94 8.37 10.46 8.26 10.92 8.26C11.80 8.26 12.24 8.89 12.24 10.19L12.24 10.65L10.00 11.03C8.74 11.24 8.12 11.89 8.12 12.89C8.12 13.99 8.90 14.69 10.15 14.69C11.06 14.69 12.01 14.15 12.38 13.44ZM12.24 11.37L12.24 12.21C12.10 13.12 11.31 13.79 10.37 13.79C9.72 13.79 9.35 13.38 9.35 12.68C9.35 12.19 9.67 11.84 10.23 11.75ZM17.65 7.50C16.35 7.50 15.39 8.19 15.39 9.37C15.39 11.63 18.93 11.44 18.93 12.91C18.93 13.65 18.44 13.97 17.65 13.97C17.21 13.97 16.80 13.89 16.48 13.64C16.37 13.31 16.27 12.95 16.27 12.81L16.27 12.28L15.46 12.24L15.30 14.14C15.30 14.14 16.23 14.69 17.61 14.69C19.14 14.69 20.08 14.11 20.08 12.64C20.08 10.43 16.51 10.57 16.51 9.14C16.51 8.57 16.95 8.23 17.64 8.23C18.03 8.23 18.28 8.27 18.58 8.40C18.68 8.72 18.77 9.06 18.77 9.20L18.77 9.70L19.59 9.74L19.75 7.74C19.08 7.60 18.33 7.50 17.65 7.50ZM20.90 4.65L21.97 4.87C21.97 4.87 22.11 5.66 22.11 5.94L22.11 12.63C22.11 12.91 21.99 13.57 21.97 13.69L20.89 13.92L20.96 14.62C20.96 14.62 22.23 14.55 22.51 14.55C23.63 14.55 24.32 14.62 24.32 14.62L24.42 13.79L23.32 13.69C23.31 13.58 23.24 12.82 23.24 12.21L23.24 6.36C23.24 5.70 23.30 4.65 23.34 4.21L23.07 3.96L22.26 3.96C21.98 3.96 20.97 3.91 20.97 3.91ZM25.70 8.43L23.39 10.84L25.38 12.94L26.10 13.72L25.30 13.87L25.37 14.57L26.80 14.55C27.92 14.55 28.60 14.62 28.60 14.62L28.70 13.79L27.82 13.71C27.36 13.36 26.71 12.91 26.56 12.74L24.64 10.64L25.77 9.42C26.03 9.16 26.70 8.74 27.16 8.48L28.21 8.37L28.17 7.56C28.17 7.56 27.51 7.63 26.39 7.63C26.11 7.63 25.17 7.59 25.17 7.59L25.10 8.32ZM41.20 4.68L40.92 4.96C40.92 4.96 40.32 6.72 40.18 7.03L38.28 12.10L36.41 7.14C36.29 6.80 35.69 4.96 35.69 4.96L35.42 4.66L34.64 4.66C34.36 4.68 32.70 4.61 32.70 4.61L32.63 5.36L33.78 5.53C33.81 5.73 33.84 6.34 33.84 6.58L33.47 12.70C33.43 12.94 33.28 13.51 33.24 13.69L32.14 13.92L32.21 14.62C32.21 14.62 33.45 14.55 33.71 14.55C34.80 14.55 35.52 14.62 35.52 14.62L35.62 13.79L34.48 13.69C34.47 13.47 34.41 12.67 34.41 12.28L34.75 6.37L37.81 14.55L38.32 14.55L41.38 6.37L41.76 12.28C41.76 12.67 41.71 13.48 41.69 13.69L40.60 13.92L40.67 14.62C40.67 14.62 42.07 14.55 42.34 14.55C43.46 14.55 44.38 14.62 44.38 14.62L44.46 13.79L43.33 13.69C43.29 13.51 43.15 12.94 43.11 12.70L42.63 6.58C42.63 6.34 42.64 5.70 42.67 5.53L43.79 5.43L43.74 4.61C43.74 4.61 42.69 4.68 41.57 4.68ZM49.84 14.55C50.96 14.55 51.65 14.62 51.65 14.62L51.74 13.79L50.78 13.69C50.78 13.69 50.64 12.91 50.64 12.21L50.64 10.47C50.64 8.33 49.99 7.50 48.33 7.50C47.49 7.50 46.63 7.62 45.79 7.84L45.95 9.74L46.76 9.70L46.76 9.13L46.86 8.54C47.21 8.37 47.73 8.26 48.19 8.26C49.07 8.26 49.50 8.89 49.50 10.19L49.50 10.65L47.26 11.03C46.00 11.24 45.39 11.89 45.39 12.89C45.39 13.99 46.17 14.69 47.42 14.69C48.33 14.69 49.28 14.15 49.64 13.44ZM49.50 11.37L49.50 12.21C49.36 13.12 48.58 13.79 47.64 13.79C46.98 13.79 46.62 13.38 46.62 12.68C46.62 12.19 46.94 11.84 47.50 11.75ZM52.49 8.32L53.55 8.54C53.55 8.54 53.69 9.32 53.69 9.60L53.69 12.70C53.66 13.02 53.55 13.69 53.55 13.69L52.49 13.92L52.56 14.62C52.56 14.62 53.83 14.55 54.11 14.55C55.23 14.55 55.92 14.62 55.92 14.62L56.01 13.79L54.92 13.69C54.92 13.69 54.82 12.91 54.82 12.21L54.82 10.71C54.84 9.34 55.51 8.36 56.62 8.36C57.79 8.36 58.06 9.51 58.06 10.68L58.06 12.63C58.06 12.98 57.99 13.38 57.92 13.69L56.98 13.92L57.05 14.62C57.05 14.62 58.20 14.55 58.48 14.55C59.60 14.55 60.28 14.62 60.28 14.62L60.38 13.79L59.29 13.69C59.29 13.69 59.19 12.91 59.19 12.21L59.19 10.68C59.19 8.75 58.76 7.50 56.83 7.50C55.76 7.50 55.03 8.13 54.70 8.78L54.61 7.88L54.35 7.63L53.84 7.63C53.56 7.63 52.56 7.57 52.56 7.57ZM65.60 14.55C66.72 14.55 67.41 14.62 67.41 14.62L67.51 13.79L66.54 13.69C66.54 13.69 66.40 12.91 66.40 12.21L66.40 10.47C66.40 8.33 65.76 7.50 64.09 7.50C63.25 7.50 62.40 7.62 61.56 7.84L61.71 9.74L62.52 9.70L62.52 9.13L62.62 8.54C62.97 8.37 63.49 8.26 63.95 8.26C64.83 8.26 65.27 8.89 65.27 10.19L65.27 10.65L63.03 11.03C61.77 11.24 61.15 11.89 61.15 12.89C61.15 13.99 61.94 14.69 63.18 14.69C64.09 14.69 65.04 14.15 65.41 13.44ZM65.27 11.37L65.27 12.21C65.13 13.12 64.34 13.79 63.41 13.79C62.75 13.79 62.38 13.38 62.38 12.68C62.38 12.19 62.71 11.84 63.27 11.75ZM74.38 8.39L74.38 7.57L72.67 7.84C72.25 7.63 71.76 7.50 71.20 7.50C69.58 7.50 68.50 8.51 68.50 10.04C68.50 11.05 68.98 11.83 69.76 12.25C69.08 12.82 68.75 13.17 68.75 13.37C68.75 13.86 68.96 14.18 69.47 14.39C68.73 14.98 68.19 15.55 68.19 15.81C68.19 17.14 69.15 17.84 70.97 17.84C72.93 17.84 74.52 16.63 74.52 15.16C74.52 14.49 74.30 14.07 73.89 13.94C73.36 13.78 72.14 13.65 71.19 13.52C70.14 13.40 69.87 13.31 69.87 13.03C69.87 12.95 69.99 12.75 70.25 12.45C70.55 12.53 70.85 12.57 71.20 12.57C72.83 12.57 73.91 11.56 73.91 10.04C73.91 9.34 73.68 8.74 73.26 8.30ZM70 14.56C70.27 14.63 70.59 14.69 70.97 14.73L72.79 14.97C73.21 15.02 73.33 15.18 73.33 15.60C73.33 16.45 72.51 17.04 71.36 17.04C70.01 17.04 69.40 16.60 69.40 15.65C69.40 15.39 69.51 15.16 70 14.56ZM71.20 8.22C72.20 8.22 72.69 8.82 72.69 10.04C72.69 11.26 72.20 11.86 71.20 11.86C70.21 11.86 69.72 11.26 69.72 10.04C69.72 8.83 70.22 8.22 71.20 8.22ZM78.43 7.50C76.37 7.50 75.38 9.02 75.38 11.12C75.38 13.23 76.48 14.69 78.60 14.69C80.18 14.69 81.07 13.85 81.07 13.85L80.68 13.20C80.68 13.20 79.79 13.78 78.60 13.78C77.34 13.78 76.73 12.49 76.69 11.23L80.88 11.23L81.12 10.77C81.12 8.81 80.39 7.50 78.43 7.50ZM78.37 8.23C79.37 8.23 79.83 9.02 79.83 10.01C79.83 10.08 79.81 10.29 79.81 10.29L76.71 10.53C76.80 9.37 77.22 8.23 78.37 8.23ZM86.32 7.50C85.27 7.50 84.56 8.13 84.22 8.78L84.14 7.88L83.87 7.63L83.37 7.63C83.09 7.63 82.08 7.57 82.08 7.57L82.01 8.32L83.08 8.54C83.08 8.54 83.22 9.32 83.22 9.60L83.22 12.70C83.19 13.02 83.08 13.69 83.08 13.69L82.01 13.92L82.08 14.62C82.08 14.62 83.36 14.55 83.64 14.55C84.76 14.55 85.44 14.62 85.44 14.62L85.54 13.79L84.45 13.69C84.45 13.69 84.35 12.91 84.35 12.21L84.35 10.71C84.36 9.34 85.04 8.36 86.09 8.36C87.14 8.36 87.36 9.51 87.36 10.68L87.36 12.63C87.36 12.98 87.29 13.38 87.22 13.69L86.28 13.92L86.35 14.62C86.35 14.62 87.50 14.55 87.78 14.55C88.90 14.55 89.59 14.62 89.59 14.62L89.68 13.79L88.59 13.69C88.59 13.69 88.49 12.91 88.49 12.21L88.49 10.68L88.49 10.58C88.54 9.27 89.21 8.36 90.23 8.36C91.28 8.36 91.50 9.51 91.50 10.68L91.50 12.63C91.50 12.98 91.43 13.38 91.36 13.69L90.43 13.92L90.50 14.62C90.50 14.62 91.64 14.55 91.92 14.55C93.04 14.55 93.73 14.62 93.73 14.62L93.83 13.79L92.74 13.69C92.74 13.69 92.64 12.91 92.64 12.21L92.64 10.68C92.64 8.75 92.25 7.50 90.47 7.50C89.40 7.50 88.66 8.15 88.27 8.83C88.00 7.99 87.43 7.50 86.32 7.50ZM97.58 7.50C95.52 7.50 94.53 9.02 94.53 11.12C94.53 13.23 95.63 14.69 97.75 14.69C99.33 14.69 100.23 13.85 100.23 13.85L99.83 13.20C99.83 13.20 98.94 13.78 97.75 13.78C96.49 13.78 95.89 12.49 95.84 11.23L100.03 11.23L100.27 10.77C100.27 8.81 99.54 7.50 97.58 7.50ZM97.52 8.23C98.52 8.23 98.98 9.02 98.98 10.01C98.98 10.08 98.97 10.29 98.97 10.29L95.86 10.53C95.96 9.37 96.38 8.23 97.52 8.23ZM101.16 8.32L102.23 8.54C102.23 8.54 102.37 9.32 102.37 9.60L102.37 12.70C102.34 13.02 102.23 13.69 102.23 13.69L101.16 13.92L101.23 14.62C101.23 14.62 102.51 14.55 102.79 14.55C103.91 14.55 104.59 14.62 104.59 14.62L104.69 13.79L103.60 13.69C103.60 13.69 103.50 12.91 103.50 12.21L103.50 10.71C103.52 9.34 104.19 8.36 105.29 8.36C106.47 8.36 106.74 9.51 106.74 10.68L106.74 12.63C106.74 12.98 106.67 13.38 106.60 13.69L105.66 13.92L105.73 14.62C105.73 14.62 106.88 14.55 107.16 14.55C108.28 14.55 108.96 14.62 108.96 14.62L109.06 13.79L107.97 13.69C107.97 13.69 107.87 12.91 107.87 12.21L107.87 10.68C107.87 8.75 107.44 7.50 105.50 7.50C104.44 7.50 103.71 8.13 103.38 8.78L103.29 7.88L103.03 7.63L102.52 7.63C102.24 7.63 101.23 7.57 101.23 7.57ZM113.60 13.38C113.60 13.38 112.99 13.79 112.49 13.79C111.97 13.79 111.73 13.40 111.73 12.70L111.73 8.39L113.62 8.39L113.69 7.63L111.73 7.63L111.73 6.19L111.24 6.13C111.24 6.13 110.71 7.25 110.60 7.39C110.28 7.59 109.94 7.64 109.48 7.80L109.52 8.39L110.60 8.39L110.60 12.36C110.60 13.90 111.01 14.69 112.34 14.69C113.04 14.69 113.54 14.31 113.99 13.96ZM118.06 11.86L117.85 14.01C117.85 14.01 119.06 14.76 120.93 14.76C122.78 14.76 124.28 13.86 124.28 12.00C124.28 8.82 119.43 8.99 119.43 6.79C119.43 5.75 120.16 5.24 121.03 5.24C121.66 5.24 122.11 5.29 122.70 5.54C122.78 5.87 122.88 6.20 122.88 6.33L122.88 6.94L123.70 7.03L123.90 4.91C123.00 4.69 121.98 4.47 121.07 4.47C119.34 4.47 118.03 5.38 118.03 7.06C118.03 10.08 122.81 9.87 122.81 12.17C122.81 13.30 122.08 13.92 120.96 13.92C120.27 13.92 119.63 13.73 119.14 13.54C119.07 13.23 118.99 12.78 118.99 12.61L118.99 11.94ZM128.60 13.09L127.22 9.66C127.11 9.39 126.97 8.89 126.87 8.47L127.88 8.37L127.83 7.56C127.83 7.56 127.04 7.63 125.92 7.63C125.64 7.63 124.77 7.59 124.77 7.59L124.70 8.32L125.38 8.48C125.65 8.95 125.96 9.53 126.10 9.88L128.10 14.55L127.65 15.79C127.57 16.00 127.36 16.41 127.12 16.74C126.83 16.80 126.36 16.88 126.18 16.88L125.62 16.87L125.51 17.68L127.76 17.84L130.65 10.08C130.76 9.80 131.10 9.06 131.38 8.48L132.12 8.37L132.08 7.56C132.08 7.56 131.53 7.63 130.47 7.63C130.19 7.63 129.25 7.59 129.25 7.59L129.18 8.32L130.20 8.48C130.10 8.93 129.92 9.58 129.82 9.84ZM135.18 7.50C133.88 7.50 132.92 8.19 132.92 9.37C132.92 11.63 136.46 11.44 136.46 12.91C136.46 13.65 135.97 13.97 135.18 13.97C134.74 13.97 134.33 13.89 134.01 13.64C133.90 13.31 133.80 12.95 133.80 12.81L133.80 12.28L132.99 12.24L132.83 14.14C132.83 14.14 133.76 14.69 135.14 14.69C136.67 14.69 137.61 14.11 137.61 12.64C137.61 10.43 134.04 10.57 134.04 9.14C134.04 8.57 134.48 8.23 135.17 8.23C135.56 8.23 135.81 8.27 136.11 8.40C136.21 8.72 136.30 9.06 136.30 9.20L136.30 9.70L137.12 9.74L137.28 7.74C136.61 7.60 135.86 7.50 135.18 7.50ZM142.55 13.38C142.55 13.38 141.95 13.79 141.44 13.79C140.92 13.79 140.69 13.40 140.69 12.70L140.69 8.39L142.58 8.39L142.65 7.63L140.69 7.63L140.69 6.19L140.20 6.13C140.20 6.13 139.66 7.25 139.55 7.39C139.23 7.59 138.89 7.64 138.43 7.80L138.47 8.39L139.55 8.39L139.55 12.36C139.55 13.90 139.96 14.69 141.29 14.69C141.99 14.69 142.49 14.31 142.94 13.96ZM146.58 7.50C144.52 7.50 143.53 9.02 143.53 11.12C143.53 13.23 144.63 14.69 146.75 14.69C148.33 14.69 149.23 13.85 149.23 13.85L148.83 13.20C148.83 13.20 147.94 13.78 146.75 13.78C145.49 13.78 144.89 12.49 144.84 11.23L149.03 11.23L149.27 10.77C149.27 8.81 148.54 7.50 146.58 7.50ZM146.52 8.23C147.52 8.23 147.98 9.02 147.98 10.01C147.98 10.08 147.97 10.29 147.97 10.29L144.86 10.53C144.96 9.37 145.38 8.23 146.52 8.23ZM154.48 7.50C153.43 7.50 152.71 8.13 152.38 8.78L152.29 7.88L152.03 7.63L151.52 7.63C151.24 7.63 150.23 7.57 150.23 7.57L150.16 8.32L151.23 8.54C151.23 8.54 151.37 9.32 151.37 9.60L151.37 12.70C151.34 13.02 151.23 13.69 151.23 13.69L150.16 13.92L150.23 14.62C150.23 14.62 151.51 14.55 151.79 14.55C152.91 14.55 153.59 14.62 153.59 14.62L153.69 13.79L152.60 13.69C152.60 13.69 152.50 12.91 152.50 12.21L152.50 10.71C152.52 9.34 153.19 8.36 154.24 8.36C155.29 8.36 155.51 9.51 155.51 10.68L155.51 12.63C155.51 12.98 155.44 13.38 155.37 13.69L154.43 13.92L154.50 14.62C154.50 14.62 155.65 14.55 155.93 14.55C157.05 14.55 157.74 14.62 157.74 14.62L157.84 13.79L156.74 13.69C156.74 13.69 156.65 12.91 156.65 12.21L156.65 10.68L156.65 10.58C156.69 9.27 157.36 8.36 158.38 8.36C159.43 8.36 159.66 9.51 159.66 10.68L159.66 12.63C159.66 12.98 159.59 13.38 159.52 13.69L158.58 13.92L158.65 14.62C158.65 14.62 159.80 14.55 160.08 14.55C161.20 14.55 161.88 14.62 161.88 14.62L161.98 13.79L160.89 13.69C160.89 13.69 160.79 12.91 160.79 12.21L160.79 10.68C160.79 8.75 160.40 7.50 158.62 7.50C157.56 7.50 156.81 8.15 156.42 8.83C156.16 7.99 155.58 7.50 154.48 7.50Z"></path></g><defs data-v-fde0c5aa=""><linearGradient data-v-fde0c5aa="" gradientTransform="rotate(25)" id="f2b3a529-e267-4f4c-a408-b685c83e6ede" x1="0%" y1="0%" x2="100%" y2="0%"><stop data-v-fde0c5aa="" offset="0%" stop-color="#000A68" stop-opacity="1"></stop><stop data-v-fde0c5aa="" offset="100%" stop-color="#00C4EE" stop-opacity="1"></stop></linearGradient></defs><g data-v-fde0c5aa="" id="45b03a55-7668-4656-bfcd-a89aa276a587" stroke="none" fill="url(#f2b3a529-e267-4f4c-a408-b685c83e6ede)" transform="matrix(0.3337348693833036,0,0,0.3337348693833036,133.3132565308348,105.89149706687326)"><path d="M95 5L43.469 9.313l13.437 13.5C51.221 36.59 5 95 5 95s55.641-37.762 72.875-51.188l12.719 12.75L95 5zM5.125 36v54.156C16.778 75.066 32.603 54.27 45.656 36H5.125zm58.781 23.219c-17.53 12.358-36.55 25.475-51.25 35.562h51.25V59.22z" style="marker:none" opacity=".99" color="#000" stroke-width="200" overflow="visible"></path></g><defs data-v-fde0c5aa=""><!----></defs><g data-v-fde0c5aa="" id="98fe78d6-0efd-431c-bd6b-d65074fcc1da" fill="#000000" transform="matrix(0.3529347822724861,0,0,0.3529347822724861,52.31647391994999,186.6940500884731)"><path d="M8.43 12.21C8.40 12.18 8.36 12.15 8.32 12.15C8.29 12.15 8.27 12.15 8.25 12.17C8.23 12.18 8.20 12.21 8.18 12.22C7.98 12.40 7.77 12.56 7.57 12.70C7.38 12.84 7.17 12.94 6.93 13.03C6.69 13.13 6.44 13.20 6.16 13.24C5.88 13.29 5.57 13.31 5.22 13.31C4.66 13.31 4.12 13.22 3.64 13.01C3.15 12.81 2.74 12.52 2.39 12.14C2.04 11.76 1.75 11.28 1.55 10.74C1.36 10.19 1.26 9.56 1.26 8.86C1.26 8.18 1.36 7.56 1.55 7.01C1.76 6.47 2.04 6.01 2.41 5.61C2.77 5.24 3.21 4.94 3.71 4.73C4.21 4.52 4.76 4.42 5.36 4.42C6.26 4.42 7.08 4.56 7.81 4.89C7.85 5.78 7.90 6.30 7.90 6.41C7.91 6.64 7.99 6.75 8.19 6.75L8.53 6.75L8.53 4.51C7.35 4.03 6.29 3.81 5.36 3.81C4.65 3.81 4.00 3.92 3.40 4.17C2.81 4.42 2.28 4.76 1.86 5.21C1.43 5.66 1.11 6.19 0.87 6.80C0.63 7.42 0.52 8.11 0.52 8.86C0.52 9.63 0.64 10.32 0.87 10.95C1.09 11.58 1.41 12.10 1.82 12.54C2.23 12.99 2.72 13.33 3.29 13.57C3.86 13.80 4.48 13.93 5.17 13.93C5.57 13.93 5.95 13.90 6.30 13.83C6.64 13.76 6.96 13.66 7.25 13.54C7.53 13.41 7.80 13.26 8.04 13.09C8.27 12.91 8.50 12.73 8.71 12.50ZM19.95 6.73C19.45 6.73 19.00 6.83 18.61 7.00C18.21 7.17 17.88 7.41 17.60 7.71C17.32 8.02 17.12 8.40 16.98 8.85C16.84 9.30 16.76 9.79 16.76 10.33C16.76 10.88 16.84 11.37 16.98 11.80C17.12 12.24 17.32 12.63 17.60 12.94C17.88 13.24 18.21 13.48 18.61 13.65C19.00 13.82 19.45 13.90 19.95 13.90C20.45 13.90 20.89 13.82 21.28 13.65C21.67 13.48 22.01 13.24 22.27 12.94C22.54 12.63 22.76 12.24 22.90 11.80C23.04 11.37 23.11 10.88 23.11 10.33C23.11 9.79 23.04 9.30 22.90 8.85C22.76 8.40 22.54 8.02 22.27 7.71C22.01 7.41 21.67 7.17 21.28 7.00C20.89 6.83 20.45 6.73 19.95 6.73ZM19.95 13.38C19.53 13.38 19.17 13.31 18.86 13.17C18.55 13.03 18.28 12.82 18.07 12.56C17.86 12.29 17.72 11.97 17.61 11.59C17.50 11.21 17.46 10.79 17.46 10.33C17.46 9.87 17.50 9.45 17.61 9.07C17.72 8.69 17.86 8.37 18.07 8.11C18.28 7.84 18.55 7.62 18.86 7.48C19.17 7.34 19.53 7.27 19.95 7.27C20.37 7.27 20.72 7.34 21.03 7.48C21.34 7.62 21.60 7.84 21.81 8.11C22.02 8.37 22.18 8.69 22.27 9.07C22.37 9.45 22.43 9.87 22.43 10.33C22.43 10.79 22.37 11.21 22.27 11.59C22.18 11.97 22.02 12.29 21.81 12.56C21.60 12.82 21.34 13.03 21.03 13.17C20.72 13.31 20.37 13.38 19.95 13.38ZM38.58 13.29L38.51 13.29L38.40 13.29C38.36 13.29 38.29 13.27 38.19 13.27C38.09 13.27 37.98 13.26 37.86 13.26L37.86 9.37C37.86 8.96 37.80 8.60 37.70 8.27C37.60 7.95 37.46 7.67 37.27 7.45C37.07 7.22 36.83 7.06 36.54 6.93C36.25 6.80 35.91 6.75 35.53 6.75C35.01 6.75 34.54 6.87 34.12 7.11C33.70 7.36 33.33 7.67 33.01 8.08L32.96 7.03C32.94 6.92 32.87 6.86 32.75 6.86L32.38 6.86L31.37 6.86L31.37 7.13C31.37 7.28 31.46 7.36 31.64 7.38L31.72 7.38C31.75 7.38 31.78 7.39 31.82 7.39L32.03 7.39C32.13 7.39 32.26 7.41 32.38 7.41L32.38 13.26C32.21 13.26 32.07 13.29 31.96 13.29L31.74 13.29L31.64 13.29C31.46 13.30 31.37 13.38 31.37 13.54L31.37 13.82L32.38 13.82L33.04 13.82L34.05 13.82L34.05 13.54C34.05 13.38 33.96 13.30 33.78 13.29L33.70 13.29L33.60 13.29C33.56 13.29 33.49 13.27 33.39 13.27C33.29 13.27 33.17 13.26 33.04 13.26L33.04 8.60C33.35 8.19 33.70 7.87 34.09 7.63C34.48 7.39 34.90 7.28 35.36 7.28C35.98 7.28 36.44 7.46 36.74 7.83C37.03 8.20 37.18 8.71 37.18 9.37L37.18 13.82L37.86 13.82L38.86 13.82L38.86 13.54C38.86 13.38 38.77 13.30 38.58 13.29ZM49.36 13.93C49.66 13.93 49.94 13.86 50.22 13.75C50.48 13.64 50.71 13.48 50.89 13.29L50.71 12.98C50.67 12.94 50.64 12.92 50.60 12.92C50.57 12.92 50.51 12.94 50.46 12.99C50.40 13.05 50.33 13.09 50.25 13.15C50.16 13.20 50.05 13.26 49.92 13.31C49.80 13.37 49.67 13.38 49.50 13.38C49.36 13.38 49.22 13.36 49.11 13.31C49 13.27 48.90 13.20 48.82 13.12C48.73 13.03 48.66 12.92 48.61 12.78C48.55 12.64 48.54 12.49 48.54 12.29L48.54 7.57L50.74 7.57L50.74 7.07L48.54 7.07L48.54 4.41L48.22 4.41C48.16 4.41 48.13 4.44 48.10 4.47C48.08 4.49 48.05 4.54 48.05 4.58L47.88 7.07L46.69 7.15L46.69 7.41C46.69 7.46 46.70 7.49 46.73 7.52C46.76 7.55 46.82 7.57 46.87 7.57L47.87 7.57L47.87 12.33C47.87 12.88 47.99 13.27 48.26 13.54C48.52 13.80 48.89 13.93 49.36 13.93ZM63.64 6.80C63.46 6.76 63.28 6.73 63.07 6.73C62.52 6.73 62.06 6.89 61.68 7.21C61.31 7.53 61.01 7.98 60.79 8.54L60.73 7.07C60.73 6.99 60.70 6.93 60.68 6.90C60.65 6.87 60.59 6.86 60.51 6.86L60.16 6.86L60.16 6.86L59.15 6.86L59.15 7.13C59.15 7.31 59.25 7.36 59.42 7.38C59.50 7.38 59.58 7.38 60.16 7.41L60.16 13.26C59.58 13.29 59.50 13.29 59.42 13.29C59.25 13.30 59.15 13.36 59.15 13.54L59.15 13.82L60.16 13.82L60.82 13.82L60.82 13.82L61.82 13.82L61.82 13.54C61.82 13.36 61.73 13.30 61.56 13.29C61.47 13.29 61.39 13.29 60.82 13.26L60.82 9.30C61.03 8.68 61.31 8.20 61.64 7.88C61.98 7.56 62.41 7.39 62.94 7.39C63.08 7.39 63.21 7.41 63.32 7.42C63.43 7.43 63.55 7.45 63.62 7.48C63.70 7.50 63.74 7.53 63.80 7.55C63.85 7.56 63.90 7.57 63.92 7.57C64.01 7.57 64.05 7.53 64.06 7.46L64.15 7.00C63.99 6.92 63.83 6.85 63.64 6.80ZM75.14 6.73C74.63 6.73 74.19 6.83 73.79 7.00C73.40 7.17 73.07 7.41 72.79 7.71C72.51 8.02 72.31 8.40 72.17 8.85C72.03 9.30 71.95 9.79 71.95 10.33C71.95 10.88 72.03 11.37 72.17 11.80C72.31 12.24 72.51 12.63 72.79 12.94C73.07 13.24 73.40 13.48 73.79 13.65C74.19 13.82 74.63 13.90 75.14 13.90C75.64 13.90 76.08 13.82 76.47 13.65C76.86 13.48 77.20 13.24 77.46 12.94C77.73 12.63 77.95 12.24 78.09 11.80C78.23 11.37 78.30 10.88 78.30 10.33C78.30 9.79 78.23 9.30 78.09 8.85C77.95 8.40 77.73 8.02 77.46 7.71C77.20 7.41 76.86 7.17 76.47 7.00C76.08 6.83 75.64 6.73 75.14 6.73ZM75.14 13.38C74.72 13.38 74.35 13.31 74.05 13.17C73.74 13.03 73.47 12.82 73.26 12.56C73.05 12.29 72.91 11.97 72.80 11.59C72.69 11.21 72.65 10.79 72.65 10.33C72.65 9.87 72.69 9.45 72.80 9.07C72.91 8.69 73.05 8.37 73.26 8.11C73.47 7.84 73.74 7.62 74.05 7.48C74.35 7.34 74.72 7.27 75.14 7.27C75.56 7.27 75.91 7.34 76.22 7.48C76.52 7.62 76.79 7.84 77 8.11C77.21 8.37 77.36 8.69 77.46 9.07C77.56 9.45 77.62 9.87 77.62 10.33C77.62 10.79 77.56 11.21 77.46 11.59C77.36 11.97 77.21 12.29 77 12.56C76.79 12.82 76.52 13.03 76.22 13.17C75.91 13.31 75.56 13.38 75.14 13.38ZM88.93 13.29L88.86 13.29L88.75 13.29C88.70 13.29 88.63 13.27 88.54 13.27C88.44 13.27 88.33 13.26 88.20 13.26L88.20 3.63L87.53 3.63L86.52 3.63L86.52 3.91C86.52 4.06 86.62 4.14 86.80 4.16L86.87 4.16C86.90 4.16 86.94 4.17 86.98 4.17L87.19 4.17C87.29 4.17 87.40 4.19 87.53 4.19L87.53 13.26C87.37 13.26 87.23 13.29 87.12 13.29L86.88 13.29L86.80 13.29C86.62 13.30 86.52 13.38 86.52 13.54L86.52 13.82L87.53 13.82L88.20 13.82L89.21 13.82L89.21 13.54C89.21 13.38 89.11 13.30 88.93 13.29ZM114.32 6.86L113.81 6.86L112.41 6.86L112.41 7.13C112.41 7.28 112.50 7.36 112.69 7.38L112.76 7.38C112.78 7.38 112.81 7.39 112.85 7.39L113.06 7.39C113.16 7.39 113.27 7.41 113.40 7.41L111.26 12.45L111.17 12.66C111.15 12.73 111.13 12.80 111.10 12.87C111.09 12.80 111.05 12.73 111.03 12.66C111.01 12.59 110.99 12.52 110.96 12.45L108.79 7.41C108.95 7.41 109.09 7.39 109.20 7.39C109.31 7.39 109.40 7.38 109.42 7.38L109.51 7.38C109.69 7.36 109.79 7.28 109.79 7.13L109.79 6.86L108.37 6.86L108.37 6.86L107.81 6.86L107.35 6.86L107.35 7.13C107.35 7.28 107.45 7.36 107.63 7.38C107.63 7.38 107.77 7.38 108.05 7.39L110.77 13.57L109.54 16.28L110.01 16.28C110.10 16.28 110.17 16.25 110.21 16.21C110.25 16.17 110.29 16.13 110.32 16.06L114.09 7.39L114.34 7.39C114.42 7.39 114.46 7.38 114.49 7.38L114.56 7.38C114.74 7.36 114.84 7.28 114.84 7.13L114.84 6.86ZM125.72 6.73C125.22 6.73 124.77 6.83 124.38 7.00C123.98 7.17 123.65 7.41 123.37 7.71C123.09 8.02 122.89 8.40 122.75 8.85C122.61 9.30 122.53 9.79 122.53 10.33C122.53 10.88 122.61 11.37 122.75 11.80C122.89 12.24 123.09 12.63 123.37 12.94C123.65 13.24 123.98 13.48 124.38 13.65C124.77 13.82 125.22 13.90 125.72 13.90C126.22 13.90 126.66 13.82 127.05 13.65C127.44 13.48 127.78 13.24 128.04 12.94C128.31 12.63 128.53 12.24 128.67 11.80C128.81 11.37 128.88 10.88 128.88 10.33C128.88 9.79 128.81 9.30 128.67 8.85C128.53 8.40 128.31 8.02 128.04 7.71C127.78 7.41 127.44 7.17 127.05 7.00C126.66 6.83 126.22 6.73 125.72 6.73ZM125.72 13.38C125.30 13.38 124.94 13.31 124.63 13.17C124.32 13.03 124.05 12.82 123.84 12.56C123.63 12.29 123.49 11.97 123.38 11.59C123.27 11.21 123.23 10.79 123.23 10.33C123.23 9.87 123.27 9.45 123.38 9.07C123.49 8.69 123.63 8.37 123.84 8.11C124.05 7.84 124.32 7.62 124.63 7.48C124.94 7.34 125.30 7.27 125.72 7.27C126.14 7.27 126.49 7.34 126.80 7.48C127.11 7.62 127.37 7.84 127.58 8.11C127.79 8.37 127.95 8.69 128.04 9.07C128.14 9.45 128.20 9.87 128.20 10.33C128.20 10.79 128.14 11.21 128.04 11.59C127.95 11.97 127.79 12.29 127.58 12.56C127.37 12.82 127.11 13.03 126.80 13.17C126.49 13.31 126.14 13.38 125.72 13.38ZM143.92 13.29L143.85 13.29L143.74 13.29C143.70 13.29 143.63 13.27 143.53 13.27C143.43 13.27 143.32 13.26 143.19 13.26L143.19 6.85L142.52 6.86L141.51 6.86L141.51 7.13C141.51 7.28 141.61 7.36 141.79 7.38L141.86 7.38C141.89 7.38 141.93 7.39 141.97 7.39L142.18 7.39C142.28 7.39 142.39 7.41 142.52 7.41L142.52 12.08C142.21 12.49 141.85 12.81 141.46 13.05C141.06 13.27 140.64 13.40 140.20 13.40C139.58 13.40 139.12 13.20 138.82 12.84C138.53 12.46 138.38 11.96 138.38 11.30L138.38 6.85L137.70 6.86L136.70 6.86L136.70 7.13C136.70 7.28 136.79 7.36 136.98 7.38L137.05 7.38C137.07 7.38 137.12 7.39 137.16 7.39L137.37 7.39C137.47 7.39 137.58 7.41 137.70 7.41L137.70 11.30C137.70 11.70 137.76 12.07 137.86 12.39C137.96 12.71 138.10 12.99 138.29 13.22C138.49 13.44 138.71 13.62 139.01 13.75C139.30 13.87 139.64 13.93 140.03 13.93C140.55 13.93 141.02 13.80 141.44 13.57C141.86 13.33 142.24 13.01 142.56 12.60L142.62 13.64C142.62 13.76 142.70 13.82 142.83 13.82L143.19 13.82L144.20 13.82L144.20 13.54C144.20 13.38 144.10 13.30 143.92 13.29ZM157.01 6.80C156.83 6.76 156.65 6.73 156.44 6.73C155.89 6.73 155.43 6.89 155.05 7.21C154.67 7.53 154.38 7.98 154.15 8.54L154.10 7.07C154.10 6.99 154.07 6.93 154.04 6.90C154.01 6.87 153.96 6.86 153.87 6.86L153.52 6.86L153.52 6.86L152.52 6.86L152.52 7.13C152.52 7.31 152.61 7.36 152.78 7.38C152.87 7.38 152.95 7.38 153.52 7.41L153.52 13.26C152.95 13.29 152.87 13.29 152.78 13.29C152.61 13.30 152.52 13.36 152.52 13.54L152.52 13.82L153.52 13.82L154.18 13.82L154.18 13.82L155.19 13.82L155.19 13.54C155.19 13.36 155.09 13.30 154.92 13.29C154.84 13.29 154.76 13.29 154.18 13.26L154.18 9.30C154.39 8.68 154.67 8.20 155.01 7.88C155.34 7.56 155.78 7.39 156.31 7.39C156.45 7.39 156.58 7.41 156.69 7.42C156.80 7.43 156.91 7.45 156.98 7.48C157.07 7.50 157.11 7.53 157.16 7.55C157.22 7.56 157.26 7.57 157.29 7.57C157.37 7.57 157.42 7.53 157.43 7.46L157.51 7.00C157.36 6.92 157.19 6.85 157.01 6.80ZM178.36 13.29L178.29 13.29L178.18 13.29C178.14 13.29 178.07 13.27 177.97 13.27C177.87 13.27 177.76 13.26 177.63 13.26L177.63 3.63L176.96 3.63L175.95 3.63L175.95 3.91C175.95 4.06 176.05 4.14 176.23 4.16L176.30 4.16C176.33 4.16 176.37 4.17 176.41 4.17L176.62 4.17C176.72 4.17 176.83 4.19 176.96 4.19L176.96 13.26C176.81 13.26 176.67 13.29 176.55 13.29L176.32 13.29L176.23 13.29C176.05 13.30 175.95 13.38 175.95 13.54L175.95 13.82L176.96 13.82L177.63 13.82L178.64 13.82L178.64 13.54C178.64 13.38 178.54 13.30 178.36 13.29ZM187.78 4.89C187.84 4.94 187.91 4.98 187.98 5.01C188.05 5.04 188.13 5.07 188.22 5.07C188.30 5.07 188.38 5.04 188.45 5.01C188.52 4.98 188.59 4.94 188.65 4.89C188.71 4.83 188.76 4.76 188.79 4.69C188.82 4.62 188.85 4.54 188.85 4.45C188.85 4.37 188.82 4.30 188.79 4.21C188.76 4.14 188.71 4.07 188.65 4.02C188.59 3.96 188.52 3.91 188.45 3.88C188.38 3.85 188.30 3.84 188.22 3.84C188.13 3.84 188.05 3.85 187.98 3.88C187.91 3.91 187.84 3.96 187.78 4.02C187.73 4.07 187.68 4.14 187.66 4.21C187.63 4.28 187.60 4.37 187.60 4.45C187.60 4.54 187.63 4.62 187.66 4.69C187.68 4.76 187.73 4.83 187.78 4.89ZM189.28 13.29L189.21 13.29L189.10 13.29C189.06 13.29 188.99 13.27 188.89 13.27C188.79 13.27 188.68 13.26 188.55 13.26L188.55 6.85L187.88 6.85L186.87 6.85L186.87 7.13C186.87 7.28 186.97 7.36 187.15 7.38L187.22 7.38C187.25 7.38 187.29 7.39 187.33 7.39L187.54 7.39C187.64 7.39 187.75 7.41 187.88 7.41L187.88 13.26C187.73 13.26 187.59 13.29 187.47 13.29L187.24 13.29L187.15 13.29C186.97 13.30 186.87 13.38 186.87 13.54L186.87 13.82L187.88 13.82L188.55 13.82L189.56 13.82L189.56 13.54C189.56 13.38 189.46 13.30 189.28 13.29ZM199.70 5.32C199.78 5.08 199.88 4.90 200.02 4.75C200.16 4.59 200.33 4.48 200.52 4.41C200.72 4.34 200.93 4.31 201.15 4.31C201.29 4.31 201.42 4.33 201.52 4.34C201.61 4.35 201.68 4.35 201.74 4.35C201.82 4.35 201.88 4.33 201.88 4.26L201.89 3.93C201.78 3.89 201.64 3.85 201.50 3.82C201.35 3.79 201.21 3.79 201.07 3.79C200.75 3.79 200.47 3.84 200.20 3.93C199.93 4.03 199.71 4.20 199.53 4.40C199.35 4.59 199.19 4.84 199.09 5.14C199.00 5.43 198.94 5.80 198.94 6.19L198.94 7.07L197.75 7.07L197.75 7.35C197.75 7.46 197.81 7.50 197.95 7.52L198.94 7.59L198.94 13.26C198.77 13.26 198.63 13.27 198.49 13.27C198.35 13.27 198.25 13.29 198.18 13.29L198.06 13.29C197.88 13.30 197.78 13.38 197.78 13.54L197.78 13.82L198.95 13.82L199.60 13.82L200.77 13.82L200.77 13.54C200.77 13.38 200.68 13.30 200.49 13.29L200.37 13.29C200.30 13.29 200.20 13.27 200.06 13.27C199.92 13.27 199.77 13.26 199.60 13.26L199.60 7.57L201.84 7.57L201.84 7.07L199.58 7.07L199.58 6.22C199.58 5.87 199.61 5.56 199.70 5.32ZM212.95 6.73C212.46 6.73 212.02 6.83 211.62 7.00C211.23 7.17 210.91 7.41 210.64 7.71C210.38 8.02 210.17 8.39 210.03 8.81C209.89 9.23 209.80 9.69 209.80 10.19C209.80 10.78 209.89 11.31 210.04 11.77C210.20 12.24 210.41 12.61 210.69 12.94C210.97 13.26 211.30 13.50 211.69 13.66C212.09 13.83 212.52 13.90 213.00 13.90C213.26 13.90 213.53 13.89 213.78 13.83C214.03 13.78 214.28 13.71 214.51 13.62C214.73 13.54 214.94 13.44 215.12 13.31C215.31 13.19 215.46 13.06 215.57 12.92L215.39 12.70C215.36 12.66 215.31 12.63 215.25 12.63C215.21 12.63 215.12 12.66 215.03 12.74C214.93 12.82 214.79 12.91 214.61 13.01C214.44 13.10 214.21 13.17 213.96 13.26C213.71 13.34 213.40 13.38 213.05 13.38C212.66 13.38 212.31 13.31 211.99 13.17C211.67 13.03 211.40 12.84 211.18 12.57C210.95 12.31 210.78 11.97 210.66 11.58C210.53 11.19 210.48 10.71 210.48 10.19L210.48 10.07L215.50 10.07C215.57 10.07 215.61 10.05 215.64 10.01C215.67 9.97 215.70 9.90 215.70 9.80C215.70 9.31 215.63 8.88 215.49 8.50C215.35 8.12 215.17 7.78 214.91 7.53C214.68 7.28 214.38 7.08 214.05 6.94C213.71 6.80 213.35 6.73 212.95 6.73ZM212.97 7.24C213.29 7.24 213.57 7.29 213.84 7.41C214.10 7.52 214.33 7.67 214.51 7.88C214.69 8.09 214.84 8.33 214.94 8.62C215.04 8.92 215.10 9.25 215.10 9.63L210.50 9.63C210.55 9.27 210.63 8.93 210.76 8.64C210.88 8.34 211.05 8.09 211.26 7.88C211.47 7.67 211.72 7.52 212.00 7.41C212.28 7.29 212.60 7.24 212.97 7.24ZM224.24 13.23C224.24 13.41 224.28 13.57 224.39 13.68C224.50 13.79 224.66 13.85 224.83 13.85L224.94 13.85C224.97 13.85 224.99 13.83 225.02 13.82C225.01 13.99 224.97 14.14 224.91 14.29C224.85 14.45 224.78 14.57 224.71 14.70C224.64 14.83 224.57 14.94 224.50 15.02C224.43 15.11 224.36 15.19 224.32 15.23C224.31 15.25 224.29 15.27 224.28 15.30C224.27 15.33 224.25 15.33 224.25 15.36C224.25 15.40 224.27 15.44 224.31 15.48L224.42 15.58C224.57 15.43 224.73 15.29 224.85 15.11C224.98 14.92 225.09 14.74 225.19 14.55C225.29 14.35 225.34 14.15 225.40 13.96C225.46 13.76 225.47 13.58 225.47 13.38C225.47 13.16 225.41 12.98 225.30 12.84C225.19 12.70 225.04 12.63 224.84 12.63C224.66 12.63 224.52 12.70 224.41 12.81C224.29 12.92 224.24 13.06 224.24 13.23ZM247.52 6.73C247.02 6.73 246.57 6.83 246.18 7.00C245.78 7.17 245.45 7.41 245.17 7.71C244.89 8.02 244.69 8.40 244.55 8.85C244.41 9.30 244.33 9.79 244.33 10.33C244.33 10.88 244.41 11.37 244.55 11.80C244.69 12.24 244.89 12.63 245.17 12.94C245.45 13.24 245.78 13.48 246.18 13.65C246.57 13.82 247.02 13.90 247.52 13.90C248.02 13.90 248.46 13.82 248.85 13.65C249.24 13.48 249.58 13.24 249.84 12.94C250.11 12.63 250.33 12.24 250.47 11.80C250.61 11.37 250.68 10.88 250.68 10.33C250.68 9.79 250.61 9.30 250.47 8.85C250.33 8.40 250.11 8.02 249.84 7.71C249.58 7.41 249.24 7.17 248.85 7.00C248.46 6.83 248.02 6.73 247.52 6.73ZM247.52 13.38C247.10 13.38 246.74 13.31 246.43 13.17C246.12 13.03 245.85 12.82 245.64 12.56C245.43 12.29 245.29 11.97 245.18 11.59C245.07 11.21 245.03 10.79 245.03 10.33C245.03 9.87 245.07 9.45 245.18 9.07C245.29 8.69 245.43 8.37 245.64 8.11C245.85 7.84 246.12 7.62 246.43 7.48C246.74 7.34 247.10 7.27 247.52 7.27C247.94 7.27 248.29 7.34 248.60 7.48C248.91 7.62 249.17 7.84 249.38 8.11C249.59 8.37 249.75 8.69 249.84 9.07C249.94 9.45 250.00 9.87 250.00 10.33C250.00 10.79 249.94 11.21 249.84 11.59C249.75 11.97 249.59 12.29 249.38 12.56C249.17 12.82 248.91 13.03 248.60 13.17C248.29 13.31 247.94 13.38 247.52 13.38ZM263.44 6.80C263.26 6.76 263.07 6.73 262.86 6.73C262.32 6.73 261.86 6.89 261.48 7.21C261.10 7.53 260.81 7.98 260.58 8.54L260.53 7.07C260.53 6.99 260.50 6.93 260.47 6.90C260.44 6.87 260.39 6.86 260.30 6.86L259.95 6.86L259.95 6.86L258.94 6.86L258.94 7.13C258.94 7.31 259.04 7.36 259.21 7.38C259.29 7.38 259.38 7.38 259.95 7.41L259.95 13.26C259.38 13.29 259.29 13.29 259.21 13.29C259.04 13.30 258.94 13.36 258.94 13.54L258.94 13.82L259.95 13.82L260.61 13.82L260.61 13.82L261.62 13.82L261.62 13.54C261.62 13.36 261.52 13.30 261.35 13.29C261.27 13.29 261.18 13.29 260.61 13.26L260.61 9.30C260.82 8.68 261.10 8.20 261.44 7.88C261.77 7.56 262.21 7.39 262.74 7.39C262.88 7.39 263.00 7.41 263.12 7.42C263.23 7.43 263.34 7.45 263.41 7.48C263.49 7.50 263.54 7.53 263.59 7.55C263.65 7.56 263.69 7.57 263.72 7.57C263.80 7.57 263.84 7.53 263.86 7.46L263.94 7.00C263.79 6.92 263.62 6.85 263.44 6.80ZM284.79 13.29L284.72 13.29L284.61 13.29C284.56 13.29 284.49 13.27 284.40 13.27C284.30 13.27 284.19 13.26 284.06 13.26L284.06 3.63L283.39 3.63L282.38 3.63L282.38 3.91C282.38 4.06 282.48 4.14 282.66 4.16L282.73 4.16C282.76 4.16 282.80 4.17 282.84 4.17L283.05 4.17C283.15 4.17 283.26 4.19 283.39 4.19L283.39 13.26C283.23 13.26 283.09 13.29 282.98 13.29L282.74 13.29L282.66 13.29C282.48 13.30 282.38 13.38 282.38 13.54L282.38 13.82L283.39 13.82L284.06 13.82L285.07 13.82L285.07 13.54C285.07 13.38 284.97 13.30 284.79 13.29ZM294.21 4.89C294.27 4.94 294.34 4.98 294.41 5.01C294.48 5.04 294.56 5.07 294.64 5.07C294.73 5.07 294.81 5.04 294.88 5.01C294.95 4.98 295.02 4.94 295.08 4.89C295.13 4.83 295.19 4.76 295.22 4.69C295.25 4.62 295.27 4.54 295.27 4.45C295.27 4.37 295.25 4.30 295.22 4.21C295.19 4.14 295.13 4.07 295.08 4.02C295.02 3.96 294.95 3.91 294.88 3.88C294.81 3.85 294.73 3.84 294.64 3.84C294.56 3.84 294.48 3.85 294.41 3.88C294.34 3.91 294.27 3.96 294.21 4.02C294.15 4.07 294.11 4.14 294.08 4.21C294.06 4.28 294.03 4.37 294.03 4.45C294.03 4.54 294.06 4.62 294.08 4.69C294.11 4.76 294.15 4.83 294.21 4.89ZM295.71 13.29L295.64 13.29L295.53 13.29C295.48 13.29 295.41 13.27 295.32 13.27C295.22 13.27 295.11 13.26 294.98 13.26L294.98 6.85L294.31 6.85L293.30 6.85L293.30 7.13C293.30 7.28 293.40 7.36 293.58 7.38L293.65 7.38C293.68 7.38 293.72 7.39 293.76 7.39L293.97 7.39C294.07 7.39 294.18 7.41 294.31 7.41L294.31 13.26C294.15 13.26 294.01 13.29 293.90 13.29L293.66 13.29L293.58 13.29C293.40 13.30 293.30 13.38 293.30 13.54L293.30 13.82L294.31 13.82L294.98 13.82L295.99 13.82L295.99 13.54C295.99 13.38 295.89 13.30 295.71 13.29ZM306.12 5.32C306.21 5.08 306.31 4.90 306.45 4.75C306.59 4.59 306.75 4.48 306.95 4.41C307.15 4.34 307.36 4.31 307.58 4.31C307.72 4.31 307.85 4.33 307.94 4.34C308.04 4.35 308.11 4.35 308.17 4.35C308.25 4.35 308.31 4.33 308.31 4.26L308.32 3.93C308.21 3.89 308.07 3.85 307.93 3.82C307.78 3.79 307.64 3.79 307.50 3.79C307.17 3.79 306.89 3.84 306.63 3.93C306.36 4.03 306.14 4.20 305.96 4.40C305.77 4.59 305.62 4.84 305.52 5.14C305.42 5.43 305.37 5.80 305.37 6.19L305.37 7.07L304.18 7.07L304.18 7.35C304.18 7.46 304.23 7.50 304.37 7.52L305.37 7.59L305.37 13.26C305.20 13.26 305.06 13.27 304.92 13.27C304.78 13.27 304.68 13.29 304.61 13.29L304.49 13.29C304.30 13.30 304.21 13.38 304.21 13.54L304.21 13.82L305.38 13.82L306.03 13.82L307.20 13.82L307.20 13.54C307.20 13.38 307.10 13.30 306.92 13.29L306.80 13.29C306.73 13.29 306.63 13.27 306.49 13.27C306.35 13.27 306.19 13.26 306.03 13.26L306.03 7.57L308.27 7.57L308.27 7.07L306.01 7.07L306.01 6.22C306.01 5.87 306.04 5.56 306.12 5.32ZM319.38 6.73C318.89 6.73 318.44 6.83 318.05 7.00C317.66 7.17 317.34 7.41 317.07 7.71C316.81 8.02 316.60 8.39 316.46 8.81C316.32 9.23 316.23 9.69 316.23 10.19C316.23 10.78 316.32 11.31 316.47 11.77C316.62 12.24 316.83 12.61 317.11 12.94C317.39 13.26 317.73 13.50 318.12 13.66C318.51 13.83 318.95 13.90 319.42 13.90C319.69 13.90 319.96 13.89 320.21 13.83C320.46 13.78 320.71 13.71 320.94 13.62C321.16 13.54 321.37 13.44 321.55 13.31C321.73 13.19 321.89 13.06 322.00 12.92L321.82 12.70C321.79 12.66 321.73 12.63 321.68 12.63C321.64 12.63 321.55 12.66 321.45 12.74C321.36 12.82 321.22 12.91 321.03 13.01C320.87 13.10 320.64 13.17 320.39 13.26C320.14 13.34 319.83 13.38 319.48 13.38C319.09 13.38 318.74 13.31 318.42 13.17C318.09 13.03 317.83 12.84 317.60 12.57C317.38 12.31 317.21 11.97 317.09 11.58C316.96 11.19 316.90 10.71 316.90 10.19L316.90 10.07L321.93 10.07C322.00 10.07 322.04 10.05 322.07 10.01C322.10 9.97 322.13 9.90 322.13 9.80C322.13 9.31 322.06 8.88 321.92 8.50C321.78 8.12 321.59 7.78 321.34 7.53C321.10 7.28 320.81 7.08 320.47 6.94C320.14 6.80 319.77 6.73 319.38 6.73ZM319.40 7.24C319.72 7.24 320.00 7.29 320.26 7.41C320.53 7.52 320.75 7.67 320.94 7.88C321.12 8.09 321.27 8.33 321.37 8.62C321.47 8.92 321.52 9.25 321.52 9.63L316.93 9.63C316.97 9.27 317.06 8.93 317.18 8.64C317.31 8.34 317.48 8.09 317.69 7.88C317.90 7.67 318.15 7.52 318.43 7.41C318.71 7.29 319.03 7.24 319.40 7.24ZM350.84 6.86L350.35 6.86L348.99 6.86L348.99 7.13C348.99 7.28 349.09 7.36 349.27 7.38L349.34 7.38C349.37 7.38 349.40 7.39 349.44 7.39L349.65 7.39C349.75 7.39 349.86 7.41 349.99 7.41L348.35 12.52C348.31 12.63 348.29 12.73 348.26 12.82C348.24 12.92 348.22 13.02 348.21 13.12C348.17 12.92 348.11 12.73 348.04 12.52L346.19 6.97C346.16 6.87 346.09 6.82 346.00 6.82L345.72 6.82C345.62 6.82 345.55 6.87 345.52 6.97L343.66 12.52C343.62 12.63 343.59 12.73 343.56 12.82L343.48 13.12C343.48 13.09 343.45 12.99 343.42 12.82C343.41 12.73 343.38 12.63 343.35 12.52L341.71 7.41C341.87 7.41 342.02 7.39 342.13 7.39C342.24 7.39 342.33 7.38 342.36 7.38L342.44 7.38C342.62 7.36 342.72 7.28 342.72 7.13L342.72 6.86L341.35 6.85L340.83 6.86L340.28 6.86L340.28 7.13C340.28 7.28 340.37 7.36 340.55 7.38L340.62 7.38L340.69 7.38C340.72 7.38 340.76 7.39 340.82 7.39L341.01 7.39L343.17 13.82L343.63 13.82C343.71 13.82 343.77 13.76 343.80 13.66L345.73 8.01C345.76 7.94 345.79 7.88 345.80 7.81L345.84 7.60L345.88 7.81C345.90 7.88 345.93 7.94 345.95 8.01L347.86 13.66C347.89 13.76 347.96 13.82 348.03 13.82L348.52 13.82L350.66 7.39L350.92 7.39C351.01 7.39 351.05 7.38 351.08 7.38L351.15 7.38C351.33 7.36 351.43 7.28 351.43 7.13L351.43 6.86ZM360.39 4.89C360.44 4.94 360.51 4.98 360.58 5.01C360.65 5.04 360.74 5.07 360.82 5.07C360.91 5.07 360.99 5.04 361.06 5.01C361.13 4.98 361.20 4.94 361.26 4.89C361.31 4.83 361.37 4.76 361.40 4.69C361.42 4.62 361.45 4.54 361.45 4.45C361.45 4.37 361.42 4.30 361.40 4.21C361.37 4.14 361.31 4.07 361.26 4.02C361.20 3.96 361.13 3.91 361.06 3.88C360.99 3.85 360.91 3.84 360.82 3.84C360.74 3.84 360.65 3.85 360.58 3.88C360.51 3.91 360.44 3.96 360.39 4.02C360.33 4.07 360.29 4.14 360.26 4.21C360.23 4.28 360.21 4.37 360.21 4.45C360.21 4.54 360.23 4.62 360.26 4.69C360.29 4.76 360.33 4.83 360.39 4.89ZM361.89 13.29L361.82 13.29L361.70 13.29C361.66 13.29 361.59 13.27 361.49 13.27C361.40 13.27 361.28 13.26 361.16 13.26L361.16 6.85L360.49 6.85L359.48 6.85L359.48 7.13C359.48 7.28 359.58 7.36 359.76 7.38L359.83 7.38C359.86 7.38 359.90 7.39 359.94 7.39L360.15 7.39C360.25 7.39 360.36 7.41 360.49 7.41L360.49 13.26C360.33 13.26 360.19 13.29 360.08 13.29L359.84 13.29L359.76 13.29C359.58 13.30 359.48 13.38 359.48 13.54L359.48 13.82L360.49 13.82L361.16 13.82L362.17 13.82L362.17 13.54C362.17 13.38 362.07 13.30 361.89 13.29ZM372.82 13.29L372.75 13.29L372.64 13.29C372.60 13.29 372.53 13.27 372.43 13.27C372.33 13.27 372.22 13.26 372.09 13.26L372.09 3.63L371.42 3.63L370.41 3.63L370.41 3.91C370.41 4.06 370.51 4.14 370.69 4.16L370.76 4.16C370.79 4.16 370.83 4.17 370.87 4.17L371.08 4.17C371.18 4.17 371.29 4.19 371.42 4.19L371.42 13.26C371.27 13.26 371.13 13.29 371.01 13.29L370.78 13.29L370.69 13.29C370.51 13.30 370.41 13.38 370.41 13.54L370.41 13.82L371.42 13.82L372.09 13.82L373.10 13.82L373.10 13.54C373.10 13.38 373.00 13.30 372.82 13.29ZM383.73 13.29L383.66 13.29L383.54 13.29C383.50 13.29 383.43 13.27 383.33 13.27C383.24 13.27 383.12 13.26 383.00 13.26L383.00 3.63L382.33 3.63L381.32 3.63L381.32 3.91C381.32 4.06 381.42 4.14 381.60 4.16L381.67 4.16C381.70 4.16 381.74 4.17 381.78 4.17L381.99 4.17C382.09 4.17 382.20 4.19 382.33 4.19L382.33 13.26C382.17 13.26 382.03 13.29 381.92 13.29L381.68 13.29L381.60 13.29C381.42 13.30 381.32 13.38 381.32 13.54L381.32 13.82L382.33 13.82L383.00 13.82L384.01 13.82L384.01 13.54C384.01 13.38 383.91 13.30 383.73 13.29ZM407.64 12.70C407.61 12.66 407.55 12.63 407.50 12.63C407.44 12.63 407.39 12.66 407.30 12.74C407.22 12.82 407.09 12.91 406.95 13.01C406.81 13.10 406.62 13.17 406.39 13.26C406.17 13.34 405.87 13.38 405.54 13.38C405.17 13.38 404.84 13.31 404.54 13.17C404.25 13.03 404.00 12.85 403.79 12.59C403.58 12.33 403.41 12.01 403.30 11.63C403.19 11.26 403.13 10.82 403.13 10.33C403.13 9.86 403.19 9.44 403.30 9.06C403.41 8.68 403.58 8.36 403.79 8.09C404.00 7.83 404.26 7.62 404.57 7.48C404.88 7.34 405.23 7.27 405.64 7.27C405.99 7.27 406.38 7.35 406.83 7.50C406.84 7.69 406.84 7.87 406.85 8.04C406.87 8.20 406.88 8.33 406.90 8.43C406.91 8.53 406.91 8.58 406.91 8.60C406.92 8.82 407.02 8.93 407.22 8.93L407.55 8.93L407.55 7.18L407.19 7.07C406.95 7.00 406.66 6.92 406.34 6.85C406.01 6.78 405.76 6.75 405.59 6.75C405.09 6.75 404.66 6.82 404.26 7.00C403.87 7.18 403.54 7.42 403.27 7.74C403.00 8.06 402.81 8.44 402.67 8.88C402.53 9.31 402.44 9.80 402.44 10.33C402.44 10.89 402.51 11.40 402.67 11.84C402.81 12.29 403.02 12.66 403.28 12.96C403.55 13.27 403.87 13.51 404.24 13.66C404.60 13.83 404.99 13.92 405.44 13.92C405.71 13.92 405.96 13.89 406.20 13.83C406.43 13.78 406.66 13.72 406.87 13.64C407.08 13.55 407.25 13.44 407.41 13.31C407.58 13.19 407.71 13.06 407.82 12.92ZM419.06 6.73C418.56 6.73 418.11 6.83 417.72 7.00C417.33 7.17 416.99 7.41 416.71 7.71C416.43 8.02 416.23 8.40 416.09 8.85C415.95 9.30 415.87 9.79 415.87 10.33C415.87 10.88 415.95 11.37 416.09 11.80C416.23 12.24 416.43 12.63 416.71 12.94C416.99 13.24 417.33 13.48 417.72 13.65C418.11 13.82 418.56 13.90 419.06 13.90C419.57 13.90 420.00 13.82 420.39 13.65C420.78 13.48 421.12 13.24 421.39 12.94C421.65 12.63 421.88 12.24 422.02 11.80C422.16 11.37 422.23 10.88 422.23 10.33C422.23 9.79 422.16 9.30 422.02 8.85C421.88 8.40 421.65 8.02 421.39 7.71C421.12 7.41 420.78 7.17 420.39 7.00C420.00 6.83 419.57 6.73 419.06 6.73ZM419.06 13.38C418.64 13.38 418.28 13.31 417.97 13.17C417.66 13.03 417.40 12.82 417.19 12.56C416.98 12.29 416.84 11.97 416.72 11.59C416.61 11.21 416.57 10.79 416.57 10.33C416.57 9.87 416.61 9.45 416.72 9.07C416.84 8.69 416.98 8.37 417.19 8.11C417.40 7.84 417.66 7.62 417.97 7.48C418.28 7.34 418.64 7.27 419.06 7.27C419.48 7.27 419.83 7.34 420.14 7.48C420.45 7.62 420.71 7.84 420.92 8.11C421.13 8.37 421.29 8.69 421.39 9.07C421.48 9.45 421.54 9.87 421.54 10.33C421.54 10.79 421.48 11.21 421.39 11.59C421.29 11.97 421.13 12.29 420.92 12.56C420.71 12.82 420.45 13.03 420.14 13.17C419.83 13.31 419.48 13.38 419.06 13.38ZM437.70 13.29L437.63 13.29L437.51 13.29C437.47 13.29 437.40 13.27 437.30 13.27C437.21 13.27 437.09 13.26 436.97 13.26L436.97 9.37C436.97 8.96 436.91 8.60 436.81 8.27C436.72 7.95 436.58 7.67 436.38 7.45C436.18 7.22 435.95 7.06 435.65 6.93C435.36 6.80 435.02 6.75 434.64 6.75C434.13 6.75 433.65 6.87 433.23 7.11C432.81 7.36 432.45 7.67 432.12 8.08L432.07 7.03C432.05 6.92 431.98 6.86 431.86 6.86L431.49 6.86L430.49 6.86L430.49 7.13C430.49 7.28 430.57 7.36 430.75 7.38L430.84 7.38C430.86 7.38 430.89 7.39 430.93 7.39L431.14 7.39C431.24 7.39 431.37 7.41 431.49 7.41L431.49 13.26C431.33 13.26 431.19 13.29 431.07 13.29L430.85 13.29L430.75 13.29C430.57 13.30 430.49 13.38 430.49 13.54L430.49 13.82L431.49 13.82L432.15 13.82L433.16 13.82L433.16 13.54C433.16 13.38 433.08 13.30 432.89 13.29L432.81 13.29L432.71 13.29C432.67 13.29 432.60 13.27 432.50 13.27C432.40 13.27 432.28 13.26 432.15 13.26L432.15 8.60C432.46 8.19 432.81 7.87 433.20 7.63C433.59 7.39 434.01 7.28 434.48 7.28C435.09 7.28 435.55 7.46 435.85 7.83C436.14 8.20 436.30 8.71 436.30 9.37L436.30 13.82L436.97 13.82L437.98 13.82L437.98 13.54C437.98 13.38 437.88 13.30 437.70 13.29ZM448.48 13.93C448.77 13.93 449.05 13.86 449.33 13.75C449.60 13.64 449.82 13.48 450.00 13.29L449.82 12.98C449.78 12.94 449.75 12.92 449.71 12.92C449.68 12.92 449.62 12.94 449.57 12.99C449.51 13.05 449.44 13.09 449.36 13.15C449.27 13.20 449.16 13.26 449.04 13.31C448.91 13.37 448.78 13.38 448.62 13.38C448.48 13.38 448.34 13.36 448.22 13.31C448.11 13.27 448.01 13.20 447.93 13.12C447.85 13.03 447.78 12.92 447.72 12.78C447.66 12.64 447.65 12.49 447.65 12.29L447.65 7.57L449.85 7.57L449.85 7.07L447.65 7.07L447.65 4.41L447.33 4.41C447.27 4.41 447.24 4.44 447.22 4.47C447.19 4.49 447.16 4.54 447.16 4.58L446.99 7.07L445.80 7.15L445.80 7.41C445.80 7.46 445.82 7.49 445.84 7.52C445.87 7.55 445.93 7.57 445.98 7.57L446.98 7.57L446.98 12.33C446.98 12.88 447.10 13.27 447.37 13.54C447.64 13.80 448.00 13.93 448.48 13.93ZM462.76 6.80C462.57 6.76 462.39 6.73 462.18 6.73C461.64 6.73 461.17 6.89 460.80 7.21C460.42 7.53 460.12 7.98 459.90 8.54L459.84 7.07C459.84 6.99 459.82 6.93 459.79 6.90C459.76 6.87 459.70 6.86 459.62 6.86L459.27 6.86L459.27 6.86L458.26 6.86L458.26 7.13C458.26 7.31 458.36 7.36 458.53 7.38C458.61 7.38 458.70 7.38 459.27 7.41L459.27 13.26C458.70 13.29 458.61 13.29 458.53 13.29C458.36 13.30 458.26 13.36 458.26 13.54L458.26 13.82L459.27 13.82L459.93 13.82L459.93 13.82L460.94 13.82L460.94 13.54C460.94 13.36 460.84 13.30 460.67 13.29C460.59 13.29 460.50 13.29 459.93 13.26L459.93 9.30C460.14 8.68 460.42 8.20 460.75 7.88C461.09 7.56 461.52 7.39 462.06 7.39C462.20 7.39 462.32 7.41 462.43 7.42C462.55 7.43 462.66 7.45 462.73 7.48C462.81 7.50 462.85 7.53 462.91 7.55C462.97 7.56 463.01 7.57 463.04 7.57C463.12 7.57 463.16 7.53 463.18 7.46L463.26 7.00C463.11 6.92 462.94 6.85 462.76 6.80ZM474.25 6.73C473.75 6.73 473.30 6.83 472.91 7.00C472.51 7.17 472.18 7.41 471.90 7.71C471.62 8.02 471.42 8.40 471.28 8.85C471.14 9.30 471.06 9.79 471.06 10.33C471.06 10.88 471.14 11.37 471.28 11.80C471.42 12.24 471.62 12.63 471.90 12.94C472.18 13.24 472.51 13.48 472.91 13.65C473.30 13.82 473.75 13.90 474.25 13.90C474.75 13.90 475.19 13.82 475.58 13.65C475.97 13.48 476.31 13.24 476.57 12.94C476.84 12.63 477.06 12.24 477.20 11.80C477.34 11.37 477.41 10.88 477.41 10.33C477.41 9.79 477.34 9.30 477.20 8.85C477.06 8.40 476.84 8.02 476.57 7.71C476.31 7.41 475.97 7.17 475.58 7.00C475.19 6.83 474.75 6.73 474.25 6.73ZM474.25 13.38C473.83 13.38 473.47 13.31 473.16 13.17C472.85 13.03 472.58 12.82 472.37 12.56C472.16 12.29 472.02 11.97 471.91 11.59C471.80 11.21 471.76 10.79 471.76 10.33C471.76 9.87 471.80 9.45 471.91 9.07C472.02 8.69 472.16 8.37 472.37 8.11C472.58 7.84 472.85 7.62 473.16 7.48C473.47 7.34 473.83 7.27 474.25 7.27C474.67 7.27 475.02 7.34 475.33 7.48C475.64 7.62 475.90 7.84 476.11 8.11C476.32 8.37 476.48 8.69 476.57 9.07C476.67 9.45 476.73 9.87 476.73 10.33C476.73 10.79 476.67 11.21 476.57 11.59C476.48 11.97 476.32 12.29 476.11 12.56C475.90 12.82 475.64 13.03 475.33 13.17C475.02 13.31 474.67 13.38 474.25 13.38ZM488.04 13.29L487.97 13.29L487.86 13.29C487.82 13.29 487.75 13.27 487.65 13.27C487.55 13.27 487.44 13.26 487.31 13.26L487.31 3.63L486.64 3.63L485.63 3.63L485.63 3.91C485.63 4.06 485.73 4.14 485.91 4.16L485.98 4.16C486.01 4.16 486.05 4.17 486.09 4.17L486.30 4.17C486.40 4.17 486.51 4.19 486.64 4.19L486.64 13.26C486.49 13.26 486.35 13.29 486.23 13.29L486.00 13.29L485.91 13.29C485.73 13.30 485.63 13.38 485.63 13.54L485.63 13.82L486.64 13.82L487.31 13.82L488.32 13.82L488.32 13.54C488.32 13.38 488.22 13.30 488.04 13.29ZM513.44 6.86L512.92 6.86L511.52 6.86L511.52 7.13C511.52 7.28 511.62 7.36 511.80 7.38L511.87 7.38C511.90 7.38 511.92 7.39 511.97 7.39L512.18 7.39C512.27 7.39 512.39 7.41 512.51 7.41L510.37 12.45L510.29 12.66C510.26 12.73 510.24 12.80 510.22 12.87C510.20 12.80 510.16 12.73 510.15 12.66C510.12 12.59 510.10 12.52 510.08 12.45L507.91 7.41C508.06 7.41 508.20 7.39 508.31 7.39C508.42 7.39 508.51 7.38 508.54 7.38L508.62 7.38C508.80 7.36 508.90 7.28 508.90 7.13L508.90 6.86L507.49 6.86L507.49 6.86L506.93 6.86L506.46 6.86L506.46 7.13C506.46 7.28 506.56 7.36 506.74 7.38C506.74 7.38 506.88 7.38 507.16 7.39L509.88 13.57L508.65 16.28L509.12 16.28C509.21 16.28 509.28 16.25 509.32 16.21C509.36 16.17 509.40 16.13 509.43 16.06L513.20 7.39L513.45 7.39C513.53 7.39 513.58 7.38 513.60 7.38L513.67 7.38C513.86 7.36 513.95 7.28 513.95 7.13L513.95 6.86ZM524.83 6.73C524.33 6.73 523.88 6.83 523.49 7.00C523.10 7.17 522.76 7.41 522.48 7.71C522.20 8.02 522.00 8.40 521.86 8.85C521.72 9.30 521.64 9.79 521.64 10.33C521.64 10.88 521.72 11.37 521.86 11.80C522.00 12.24 522.20 12.63 522.48 12.94C522.76 13.24 523.10 13.48 523.49 13.65C523.88 13.82 524.33 13.90 524.83 13.90C525.34 13.90 525.77 13.82 526.16 13.65C526.55 13.48 526.89 13.24 527.16 12.94C527.42 12.63 527.65 12.24 527.79 11.80C527.93 11.37 528.00 10.88 528.00 10.33C528.00 9.79 527.93 9.30 527.79 8.85C527.65 8.40 527.42 8.02 527.16 7.71C526.89 7.41 526.55 7.17 526.16 7.00C525.77 6.83 525.34 6.73 524.83 6.73ZM524.83 13.38C524.41 13.38 524.05 13.31 523.74 13.17C523.43 13.03 523.17 12.82 522.96 12.56C522.75 12.29 522.61 11.97 522.49 11.59C522.38 11.21 522.34 10.79 522.34 10.33C522.34 9.87 522.38 9.45 522.49 9.07C522.61 8.69 522.75 8.37 522.96 8.11C523.17 7.84 523.43 7.62 523.74 7.48C524.05 7.34 524.41 7.27 524.83 7.27C525.25 7.27 525.60 7.34 525.91 7.48C526.22 7.62 526.48 7.84 526.69 8.11C526.90 8.37 527.06 8.69 527.16 9.07C527.25 9.45 527.31 9.87 527.31 10.33C527.31 10.79 527.25 11.21 527.16 11.59C527.06 11.97 526.90 12.29 526.69 12.56C526.48 12.82 526.22 13.03 525.91 13.17C525.60 13.31 525.25 13.38 524.83 13.38ZM543.03 13.29L542.96 13.29L542.85 13.29C542.81 13.29 542.74 13.27 542.64 13.27C542.54 13.27 542.43 13.26 542.30 13.26L542.30 6.85L541.63 6.86L540.62 6.86L540.62 7.13C540.62 7.28 540.72 7.36 540.90 7.38L540.97 7.38C541.00 7.38 541.04 7.39 541.09 7.39L541.30 7.39C541.39 7.39 541.51 7.41 541.63 7.41L541.63 12.08C541.32 12.49 540.96 12.81 540.57 13.05C540.18 13.27 539.76 13.40 539.31 13.40C538.69 13.40 538.23 13.20 537.94 12.84C537.64 12.46 537.49 11.96 537.49 11.30L537.49 6.85L536.82 6.86L535.81 6.86L535.81 7.13C535.81 7.28 535.91 7.36 536.09 7.38L536.16 7.38C536.19 7.38 536.23 7.39 536.27 7.39L536.48 7.39C536.58 7.39 536.69 7.41 536.82 7.41L536.82 11.30C536.82 11.70 536.87 12.07 536.97 12.39C537.07 12.71 537.21 12.99 537.40 13.22C537.60 13.44 537.82 13.62 538.12 13.75C538.41 13.87 538.75 13.93 539.14 13.93C539.66 13.93 540.13 13.80 540.55 13.57C540.97 13.33 541.35 13.01 541.67 12.60L541.73 13.64C541.73 13.76 541.81 13.82 541.94 13.82L542.30 13.82L543.31 13.82L543.31 13.54C543.31 13.38 543.21 13.30 543.03 13.29ZM552.72 3.91L552.08 3.91L552.08 7.91L552.08 8.51C552.08 8.69 552.08 8.89 552.09 9.09C552.09 9.28 552.12 9.49 552.13 9.70C552.15 9.91 552.15 10.14 552.16 10.40L552.62 10.40C552.64 10.14 552.65 9.91 552.66 9.70C552.68 9.49 552.69 9.28 552.69 9.09C552.69 8.89 552.72 8.69 552.72 8.51L552.72 7.91ZM551.73 13.27C551.73 13.45 551.78 13.61 551.91 13.73C552.03 13.86 552.19 13.92 552.37 13.92C552.45 13.92 552.54 13.90 552.62 13.87C552.71 13.85 552.78 13.79 552.83 13.73C552.89 13.68 552.94 13.62 552.97 13.54C553 13.45 553.03 13.37 553.03 13.27C553.03 13.19 553 13.10 552.97 13.02C552.94 12.94 552.89 12.88 552.83 12.82C552.78 12.77 552.71 12.71 552.62 12.68C552.54 12.66 552.45 12.63 552.37 12.63C552.27 12.63 552.20 12.66 552.12 12.68C552.03 12.71 551.96 12.77 551.91 12.82C551.85 12.88 551.80 12.94 551.77 13.02C551.74 13.10 551.73 13.19 551.73 13.27Z"></path></g></svg>